<?xml version="1.0" encoding="UTF-8" standalone="no"?>
<svg
   version="1.0"
   id="Layer_1"
   x="0px"
   y="0px"
   viewBox="0 0 320 320"
   style="enable-background:new 0 0 320 320;"
   xml:space="preserve"
   sodipodi:docname="favicon.svg"
   inkscape:version="1.4.3 (0d15f75, 2025-12-25)"
   xmlns:inkscape="http://www.inkscape.org/namespaces/inkscape"
   xmlns:sodipodi="http://sodipodi.sourceforge.net/DTD/sodipodi-0.dtd"
   xmlns="http://www.w3.org/2000/svg"
   xmlns:svg="http://www.w3.org/2000/svg"
   xmlns:rdf="http://www.w3.org/1999/02/22-rdf-syntax-ns#"
   xmlns:cc="http://creativecommons.org/ns#"
   xmlns:dc="http://purl.org/dc/elements/1.1/"><title
   id="title8">Favicon Logo</title><defs
   id="defs8" /><sodipodi:namedview
   id="namedview8"
   pagecolor="#ffffff"
   bordercolor="#999999"
   borderopacity="1"
   inkscape:showpageshadow="2"
   inkscape:pageopacity="0"
   inkscape:pagecheckerboard="0"
   inkscape:deskcolor="#d1d1d1"
   inkscape:zoom="2.415625"
   inkscape:cx="160"
   inkscape:cy="160"
   inkscape:window-width="1920"
   inkscape:window-height="991"
   inkscape:window-x="-9"
   inkscape:window-y="-9"
   inkscape:window-maximized="1"
   inkscape:current-layer="g8" />
	<g
   id="g8">
	<path
   class="st0"
   d="M190.8,168.1c-5.9,3.1-6.6,10.2-1.6,14.4c3.8,3.2,8.1,2.9,11.6-1.1c2.9-3.3,2.8-7.5-0.3-11.2   c-1.9-2.2-2.5-4.1-2.5-7.6c0-5.9-0.8-6.3-18.4-11.5c-13.7-4-19.7-4.8-24.6-3.1c-1.4,0.5-7.8,2.5-14.2,4.5c-15.1,4.6-15,4.4-13.7,19   c2.4,26.2,7.1,40.1,17,50.9c7.5,8.3,16.6,14.8,19.3,14c2.9-0.9,15.1-10.8,17.8-14.4c1.5-2.1,3-3,4.9-3c7.4,0,11-9.9,5.4-14.7   c-3.9-3.4-8.7-3.1-11.9,0.8c-2.8,3.3-3.2,5.9-1.5,9.1c0.9,1.8,0.5,2.7-3.7,7c-2.7,2.7-6.6,6-8.6,7.4l-3.7,2.6l-4.9-3.8   c-6.7-5.4-13.7-13.5-16.8-19.5c-1.4-2.8-3.4-9-4.4-13.7c-2.3-10.3-4.6-30.2-3.8-32.3c0.4-1,6.3-3.2,15.3-5.8l14.7-4.3l13.1,3.7   c18.1,5.1,17.7,4.9,17.7,8.4C193,166,192.3,167.3,190.8,168.1z M184.3,207.7c1.8-0.8,2.9-0.3,4.1,1.6c1.4,2.1-1.3,5.1-3.7,4.1   C182.7,212.7,182.4,208.4,184.3,207.7z M194.2,173.2c1.7,0.2,2.3,1,2.3,2.8s-0.6,2.6-2.3,2.8c-2.4,0.4-3.8-1.8-2.8-4.4   C191.7,173.5,192.9,173,194.2,173.2z"
   id="path1" />
	<path
   class="st0"
   d="M110,203c4.7,0,7.8-2.3,8.6-6.5c0.7-4-1.3-8-5-9.7c-1.6-0.7-2.6-2.2-3-4.7c-1.8-10.4-3.6-26.2-3.6-31.8v-6.2   l5.7-1.7c4.8-1.4,6.2-1.5,8.8-0.4c1.6,0.7,4.4,1.5,6.2,1.7c7.1,1.1,11.2-8.9,5.8-14.2c-1.6-1.7-3.5-2.5-6-2.5   c-3.8,0-8.5,3.5-8.5,6.4c0,1.1-2.4,2.3-7.6,3.8c-10.7,3.1-10.9,3.5-9.5,20c0.7,7.2,1.8,16.7,2.6,21.1c1.3,7.6,1.3,8.1-0.7,10.8   C99.4,195.1,102.9,203,110,203z M108.5,192.4c2.5-1.9,4.7-0.6,4.3,2.5c-0.2,1.8-1,2.7-2.5,2.9C107.4,198.2,106,194.2,108.5,192.4z    M125,133.9c1.2-2.2,3-2.5,4.8-0.7s1.5,3.6-0.7,4.8C126.3,139.4,123.6,136.7,125,133.9z"
   id="path2" />
	<path
   class="st0"
   d="M261.4,153.2c-0.7,3.6-2,7.8-2.9,9.2c-2.3,3.4-5.8,3.4-7.3,0.1c-1.6-3.5-1.6-4,1.5-13.6   c2.1-6.5,2.7-10.4,2.8-17.4c0-8-0.3-9.7-3.1-15.5c-2.9-6.1-12.5-18-14.5-18c-0.5,0-0.9,1.5-0.9,3.2c0,1.8-0.5,4.9-1,6.9   c-1,3.4-1.1,3.5-6,3.5s-5,0-5-3c0-9.3-6.4-22.6-14.8-31l-5.7-5.7l-1.1,5.3c-2.7,13.6-6.5,18.3-14.3,18.2c-5.5,0-10.1-2.5-12.6-6.6   c-2.7-4.6-2.1-8.8,2.4-17c6.8-12.4,5.4-19.9-6.5-34.1c-3.1-3.7-6-6.7-6.3-6.7c-0.3,0-0.6,3.3-0.7,7.3c0,11.3-2.8,15.2-20.4,29   c-8,6.3-11.1,11.8-11.1,19.9c0,4.1,0.7,8.4,2,11.9c2.5,6.5,2.5,6.5,0.4,7.3c-2.3,0.9-8.8-3.7-11-7.6c-2.4-4.4-2.3-18.3,0.1-25.1   c1-2.7,1.5-5.1,1.2-5.4c-1-1-19.1,18.3-22.5,24c-1.8,3.1-4.4,8.5-5.7,11.9c-1.4,3.5-2.9,7-3.5,7.8c-0.5,0.8-1.2,2.3-1.5,3.2   c-0.8,2.3-1.9,2.3-4.5-0.3c-3.1-3.1-5.8-9.8-5.9-14.4l-0.1-4l-5.8,6.2c-3.3,3.4-7.4,9.1-9.2,12.9c-3.1,6.2-3.4,7.7-3.3,15.4   c0,5,0.8,11,1.8,14.5c3.7,12.5,4,14.4,2.8,17c-0.8,1.7-2,2.5-3.7,2.5c-2.1,0-3-0.8-4.6-4.4c-1-2.4-2.2-6.5-2.6-9.1   c-1-7.8-2.5-3.6-3.1,8.9c-0.4,9.5-0.1,13.1,1.7,20.9c5,21.8,18.1,40.7,37,53.6c4.9,3.4,9.6,7.8,13.6,12.8c3.5,4.3,8.6,10,11.4,12.8   c4,3.9,5.1,5.6,5.1,8.1c0,4.6,0.9,6.3,4.1,7.9c4.2,2.2,6.7,1.8,10-1.4c3.6-3.7,3.8-7.9,0.6-11.7c-2-2.3-3.2-2.7-7.7-2.8   c-5.2-0.1-5.4-0.2-11.2-6.6c-10.9-12.1-18.7-24.1-23.1-36c-3.1-8.2-7.9-29.3-10.8-47.7l-2.2-14.2l2.7-3.1   c4.5-5.4,2.9-11.4-3.6-14.1c-1.8-0.7-3.6-1.8-4-2.3c-1.3-1.8-0.9-10.3,0.5-11.4c0.6-0.6,3.8-1.7,7-2.5l5.7-1.5l2.9,2.9   c5.1,5,9.2,3.9,15.8-4.4c0.7-0.9,11.5-4,26.3-7.7l25.1-6.1l12.1,2.7c11.3,2.6,12.1,3,13,5.6c2.1,6.1,10.7,7.3,14.8,2   c2-2.5,2.2-2.5,7.3-1.3c10.9,2.6,11.4,3,12.1,6.5c1.2,6.5,7.3,9.1,13.2,5.7c2.3-1.4,4.4-1.9,6-1.5c2.2,0.6,2.4,1.1,2.4,7.3   c0,8.9-2.6,30.6-5.6,47.1c-3.1,17.1-2.9,16.4-6.4,17.7c-3,1.1-5,4.5-5,8.5c0,1.1,1.6,3.6,3.5,5.4l3.6,3.3l-3.2,7.7l-3.2,7.6   l-3.3-0.7c-6.9-1.2-13.1,5.4-10.5,11.2c1.5,3.2,0.5,4.9-8.9,14.2c-8.1,8.1-17.6,15.8-27.7,22.5c-6,4-7.4,4.6-9.1,3.7   c-1.2-0.6-3.6-1.1-5.6-1.1c-9.1,0-10.5,14.5-1.5,16.5c5.4,1.2,10.9-2.7,10.9-7.8c0-0.7,2.8-3,6.3-5.2c10.4-6.7,24.8-18.7,33.2-27.7   c6.4-6.8,8.7-8.6,11.7-9.2c5.1-0.9,8.2-4.9,7.5-9.8c-0.5-3.4-0.1-3.9,5-8.3c12.2-10.6,22.4-26.4,27.5-42.5   c1.9-6.4,2.3-9.6,2.3-21.5C264.5,147.6,263.4,143.3,261.4,153.2z M129.4,267.5c0.8-2.1,4.3-1.9,5.5,0.3c1.2,2.2-0.3,4.2-3.1,4.2   C129.7,272,128.5,269.8,129.4,267.5z M80.2,144.2c1.7,0.2,2.3,1,2.3,2.8s-0.6,2.6-2.3,2.8c-2.4,0.4-3.8-1.8-2.8-4.4   C77.7,144.5,78.9,144,80.2,144.2z M99.8,120.9c-2.1-1.1-2.4-4.5-0.5-5.2c2.4-1,4.2-0.2,4.5,2.2C104.2,120.8,102.3,122.2,99.8,120.9   z M195.2,113.8c-2.4,0.4-3.8-1.8-2.8-4.4c0.3-0.9,1.5-1.4,2.8-1.2c1.7,0.2,2.3,1,2.3,2.8S196.9,113.6,195.2,113.8z M230.2,122.8   c-2.4,0.4-3.8-1.8-2.8-4.4c0.3-0.9,1.5-1.4,2.8-1.2c1.7,0.2,2.3,1,2.3,2.8S231.9,122.6,230.2,122.8z M160.9,291   c-2.2-1.2-2.5-3-0.7-4.8s3.6-1.5,4.8,0.7C166.4,289.7,163.7,292.4,160.9,291z M221.2,240.8c-2.4,0.4-3.8-1.8-2.8-4.4   c0.3-0.9,1.5-1.4,2.8-1.2c1.7,0.2,2.3,1,2.3,2.8S222.9,240.6,221.2,240.8z M235.2,207.8c-2.4,0.4-3.8-1.8-2.8-4.4   c0.3-0.9,1.5-1.4,2.8-1.2c1.7,0.2,2.3,1,2.3,2.8S236.9,207.6,235.2,207.8z"
   id="path3" />
	<path
   class="st0"
   d="M157.7,179.8c-2.1,2.3-2.2,6.5-0.3,8.2c0.8,0.6,1.6,3,1.8,5.3c0.3,3.9,0.5,4.2,3.3,4.2s3-0.3,3.3-4.2   c0.2-2.3,1-4.7,1.8-5.3c1.8-1.6,1.8-5-0.2-7.8C165.5,177.4,160,177.2,157.7,179.8z"
   id="path4" />
	<path
   class="st0"
   d="M155,27.6c0,3.8-0.7,6.1-3,9.7c-3.8,6-4,10.3-0.5,11.9c1.9,0.9,2.9,0.7,5-0.6c5.8-3.8,8.2-12.4,5.1-18.4   c-0.8-1.5-2.6-3.8-4-5.1l-2.6-2.4V27.6z"
   id="path5" />
	<path
   class="st0"
   d="M200.7,49.4c-0.1-0.2-2,0.7-4.2,1.9c-8.3,4.7-10.6,13-5.1,18.5c5,5,10.4,0,7.7-7.3c-1.5-4.2-1.4-6.4,0.4-9.9   C200.4,51,200.9,49.6,200.7,49.4z"
   id="path6" />
	<path
   class="st0"
   d="M94,68.8C86.1,76.7,86.4,92,94.5,92c4.9,0,7.1-5.8,4.5-12c-1.2-3-1-9.7,0.5-13.3C100.7,63.8,98,64.8,94,68.8z"
   id="path7" />
	<path
   class="st0"
   d="M123,236c2.1,0,4.3,1.4,8.7,5.8c9.5,9.4,27.2,22.2,30.7,22.2c3.4,0,20.3-12.6,30.1-22.5   c14.9-14.9,19.7-24.3,24.6-47.4c5.5-26.8,7.5-50.4,4.4-53.5c-1.7-1.6-4-2.4-31-9.6c-17.2-4.6-20.4-5.9-20.5-8.3   c0-0.4-1.5-1.6-3.2-2.7c-3.6-2.2-4.3-2.3-7.3-1.1c-6.8,2.8-7.7,12.4-1.5,15.6c4.1,2.1,6.4,1.9,9.6-0.9l2.8-2.3l9.1,2.4   c15.2,4.1,34.9,9.4,36.9,10c1.7,0.5,1.8,1.3,1.1,9.2c-1.6,21-6.9,49.1-11,59.4c-3.4,8.3-10.5,18.4-18.3,26.2   c-7.4,7.4-23.6,19.5-26.1,19.5c-2.1,0-19.1-12.7-25.9-19.3c-4.9-4.9-5.2-5.4-4.7-8.9c1.5-8.8-7.4-14.2-14-8.5   C111.8,226.1,115.5,236,123,236z M162.2,129.8c-2.4,0.4-3.8-1.8-2.8-4.4c0.3-0.9,1.5-1.4,2.8-1.2c1.7,0.2,2.3,1,2.3,2.8   S163.9,129.6,162.2,129.8z M121.2,225.2c1.4-1.4,1.2-1.4,3.2-0.6c2.1,0.8,2.1,5,0,5.8C121.2,231.6,118.7,227.7,121.2,225.2z"
   id="path8" />
	</g>
<metadata
   id="metadata8"><rdf:RDF><cc:Work
       rdf:about=""><dc:title>Favicon Logo</dc:title></cc:Work></rdf:RDF></metadata></svg>
