<svg id="a" data-name="Layer 1" xmlns="http://www.w3.org/2000/svg" xmlns:xlink="http://www.w3.org/1999/xlink" viewBox="0 0 320 320">
  <defs>
    <style>
      .p { fill: #e715ff; }
      .r { stroke: #e715ff; stroke-width: 1.2px; }
      .s { stroke: #e715ff; stroke-width: .5px; }
      .q {
        clip-path: url(#i);
      }

      .r, .s {
        stroke-miterlimit: 10;
      }

      .r, .s, .t {
        fill: none;
      }

      .u {
        clip-path: url(#k);
      }

      .v {
        clip-path: url(#m);
      }

      .w {
        clip-path: url(#f);
      }

      .x {
        clip-path: url(#j);
      }

      .y {
        clip-path: url(#h);
      }

      .z {
        clip-path: url(#o);
      }

      .aa {
        clip-path: url(#b);
      }

      .ab {
        clip-path: url(#n);
      }

      .ac {
        clip-path: url(#g);
      }

      .ad {
        clip-path: url(#l);
      }

      .ae {
        clip-path: url(#d);
      }

      .af {
        clip-path: url(#e);
      }

      .ag {
        clip-path: url(#c);
      }
    </style>
    <clipPath id="b">
      <polygon class="t" points="108.57 208.07 108.48 211.8 110.29 210.52 108.57 208.07"/>
    </clipPath>
    <clipPath id="c">
      <polygon class="t" points="108.57 208.07 108.48 211.8 106.73 210.44 108.57 208.07"/>
    </clipPath>
    <clipPath id="d">
      <polygon class="t" points="54.92 123.95 51.93 121.71 51.93 123.95 54.92 123.95"/>
    </clipPath>
    <clipPath id="e">
      <polygon class="t" points="54.92 123.95 51.93 121.71 54.07 121.08 54.92 123.95"/>
    </clipPath>
    <clipPath id="f">
      <polygon class="t" points="31.72 135.29 28.54 134.37 28.75 135.75 31.72 135.29"/>
    </clipPath>
    <clipPath id="g">
      <polygon class="t" points="31.72 135.29 28.54 134.37 29.45 133.32 31.72 135.29"/>
    </clipPath>
    <clipPath id="h">
      <polygon class="t" points="37.97 101.6 38.88 98.26 37.21 98.7 37.97 101.6"/>
    </clipPath>
    <clipPath id="i">
      <polygon class="t" points="37.97 101.6 38.88 98.26 40.09 99.48 37.97 101.6"/>
    </clipPath>
    <clipPath id="j">
      <polygon class="t" points="177.74 194.03 181.31 193.24 179.77 191.82 177.74 194.03"/>
    </clipPath>
    <clipPath id="k">
      <polygon class="t" points="177.74 194.03 181.31 193.24 180.51 195.18 177.74 194.03"/>
    </clipPath>
    <clipPath id="l">
      <polygon class="t" points="172.22 207.2 174.03 210.66 174.99 208.37 172.22 207.2"/>
    </clipPath>
    <clipPath id="m">
      <polygon class="t" points="172.22 207.2 174.03 210.66 171.61 210.14 172.22 207.2"/>
    </clipPath>
    <clipPath id="n">
      <polygon class="t" points="117.18 111.68 116.47 108.39 115.28 109.36 117.18 111.68"/>
    </clipPath>
    <clipPath id="o">
      <polygon class="t" points="117.18 111.68 116.47 108.39 117.95 108.78 117.18 111.68"/>
    </clipPath>
  </defs>
  <path class="r" d="M137,146.54c-5.9,3.1-6.6,10.2-1.6,14.4,3.8,3.2,8.1,2.9,11.6-1.1,2.9-3.3,2.8-7.5-.3-11.2-1.9-2.2-2.5-4.1-2.5-7.6,0-5.9-.8-6.3-18.4-11.5-13.7-4-19.7-4.8-24.6-3.1-1.4.5-7.8,2.5-14.2,4.5-15.1,4.6-15,4.4-13.7,19,2.4,26.2,7.1,40.1,17,50.9,7.5,8.3,16.6,14.8,19.3,14,2.9-.9,15.1-10.8,17.8-14.4,1.5-2.1,3-3,4.9-3,7.4,0,11-9.9,5.4-14.7-3.9-3.4-8.7-3.1-11.9.8-2.8,3.3-3.2,5.9-1.5,9.1.9,1.8.5,2.7-3.7,7-2.7,2.7-6.6,6-8.6,7.4l-3.7,2.6-4.9-3.8c-6.7-5.4-13.7-13.5-16.8-19.5-1.4-2.8-3.4-9-4.4-13.7-2.3-10.3-4.6-30.2-3.8-32.3.4-1,6.3-3.2,15.3-5.8l14.7-4.3,13.1,3.7c18.1,5.1,17.7,4.9,17.7,8.4,0,2.1-.7,3.4-2.2,4.2ZM130.5,186.14c1.8-.8,2.9-.3,4.1,1.6,1.4,2.1-1.3,5.1-3.7,4.1-2-.7-2.3-5-.4-5.7ZM140.4,151.64c1.7.2,2.3,1,2.3,2.8s-.6,2.6-2.3,2.8c-2.4.4-3.8-1.8-2.8-4.4.3-.9,1.5-1.4,2.8-1.2Z"/>
  <path class="r" d="M56.2,181.44c4.7,0,7.8-2.3,8.6-6.5.7-4-1.3-8-5-9.7-1.6-.7-2.6-2.2-3-4.7-1.8-10.4-3.6-26.2-3.6-31.8v-6.2l5.7-1.7c4.8-1.4,6.2-1.5,8.8-.4,1.6.7,4.4,1.5,6.2,1.7,7.1,1.1,11.2-8.9,5.8-14.2-1.6-1.7-3.5-2.5-6-2.5-3.8,0-8.5,3.5-8.5,6.4,0,1.1-2.4,2.3-7.6,3.8-10.7,3.1-10.9,3.5-9.5,20,.7,7.2,1.8,16.7,2.6,21.1,1.3,7.6,1.3,8.1-.7,10.8-4.4,6-.9,13.9,6.2,13.9ZM54.7,170.84c2.5-1.9,4.7-.6,4.3,2.5-.2,1.8-1,2.7-2.5,2.9-2.9.4-4.3-3.6-1.8-5.4ZM71.2,112.34c1.2-2.2,3-2.5,4.8-.7s1.5,3.6-.7,4.8c-2.8,1.4-5.5-1.3-4.1-4.1Z"/>
  <path class="r" d="M207.6,131.64c-.7,3.6-2,7.8-2.9,9.2-2.3,3.4-5.8,3.4-7.3.1-1.6-3.5-1.6-4,1.5-13.6,2.1-6.5,2.7-10.4,2.8-17.4,0-8-.3-9.7-3.1-15.5-2.9-6.1-12.5-18-14.5-18-.5,0-.9,1.5-.9,3.2,0,1.8-.5,4.9-1,6.9-1,3.4-1.1,3.5-6,3.5s-5,0-5-3c0-9.3-6.4-22.6-14.8-31l-5.7-5.7-1.1,5.3c-2.7,13.6-6.5,18.3-14.3,18.2-5.5,0-10.1-2.5-12.6-6.6-2.7-4.6-2.1-8.8,2.4-17,6.8-12.4,5.4-19.9-6.5-34.1-3.1-3.7-6-6.7-6.3-6.7s-.6,3.3-.7,7.3c0,11.3-2.8,15.2-20.4,29-8,6.3-11.1,11.8-11.1,19.9,0,4.1.7,8.4,2,11.9q2.5,6.5.4,7.3c-2.3.9-8.8-3.7-11-7.6-2.4-4.4-2.3-18.3.1-25.1,1-2.7,1.5-5.1,1.2-5.4-1-1-19.1,18.3-22.5,24-1.8,3.1-4.4,8.5-5.7,11.9-1.4,3.5-2.9,7-3.5,7.8-.5.8-1.2,2.3-1.5,3.2-.8,2.3-1.9,2.3-4.5-.3-3.1-3.1-5.8-9.8-5.9-14.4l-.1-4-5.8,6.2c-3.3,3.4-7.4,9.1-9.2,12.9-3.1,6.2-3.4,7.7-3.3,15.4,0,5,.8,11,1.8,14.5,3.7,12.5,4,14.4,2.8,17-.8,1.7-2,2.5-3.7,2.5-2.1,0-3-.8-4.6-4.4-1-2.4-2.2-6.5-2.6-9.1-1-7.8-2.5-3.6-3.1,8.9-.4,9.5-.1,13.1,1.7,20.9,5,21.8,18.1,40.7,37,53.6,4.9,3.4,9.6,7.8,13.6,12.8,3.5,4.3,8.6,10,11.4,12.8,4,3.9,5.1,5.6,5.1,8.1,0,4.6.9,6.3,4.1,7.9,4.2,2.2,6.7,1.8,10-1.4,3.6-3.7,3.8-7.9.6-11.7-2-2.3-3.2-2.7-7.7-2.8-5.2-.1-5.4-.2-11.2-6.6-10.9-12.1-18.7-24.1-23.1-36-3.1-8.2-7.9-29.3-10.8-47.7l-2.2-14.2,2.7-3.1c4.5-5.4,2.9-11.4-3.6-14.1-1.8-.7-3.6-1.8-4-2.3-1.3-1.8-.9-10.3.5-11.4.6-.6,3.8-1.7,7-2.5l5.7-1.5,2.9,2.9c5.1,5,9.2,3.9,15.8-4.4.7-.9,11.5-4,26.3-7.7l25.1-6.1,12.1,2.7c11.3,2.6,12.1,3,13,5.6,2.1,6.1,10.7,7.3,14.8,2,2-2.5,2.2-2.5,7.3-1.3,10.9,2.6,11.4,3,12.1,6.5,1.2,6.5,7.3,9.1,13.2,5.7,2.3-1.4,4.4-1.9,6-1.5,2.2.6,2.4,1.1,2.4,7.3,0,8.9-2.6,30.6-5.6,47.1-3.1,17.1-2.9,16.4-6.4,17.7-3,1.1-5,4.5-5,8.5,0,1.1,1.6,3.6,3.5,5.4l3.6,3.3-3.2,7.7-3.2,7.6-3.3-.7c-6.9-1.2-13.1,5.4-10.5,11.2,1.5,3.2.5,4.9-8.9,14.2-8.1,8.1-17.6,15.8-27.7,22.5-6,4-7.4,4.6-9.1,3.7-1.2-.6-3.6-1.1-5.6-1.1-9.1,0-10.5,14.5-1.5,16.5,5.4,1.2,10.9-2.7,10.9-7.8,0-.7,2.8-3,6.3-5.2,10.4-6.7,24.8-18.7,33.2-27.7,6.4-6.8,8.7-8.6,11.7-9.2,5.1-.9,8.2-4.9,7.5-9.8-.5-3.4-.1-3.9,5-8.3,12.2-10.6,22.4-26.4,27.5-42.5,1.9-6.4,2.3-9.6,2.3-21.5,0-16.9-1.1-21.2-3.1-11.3ZM75.6,245.94c.8-2.1,4.3-1.9,5.5.3,1.2,2.2-.3,4.2-3.1,4.2-2.1,0-3.3-2.2-2.4-4.5ZM26.4,122.64c1.7.2,2.3,1,2.3,2.8s-.6,2.6-2.3,2.8c-2.4.4-3.8-1.8-2.8-4.4.3-.9,1.5-1.4,2.8-1.2ZM46,99.34c-2.1-1.1-2.4-4.5-.5-5.2,2.4-1,4.2-.2,4.5,2.2.4,2.9-1.5,4.3-4,3ZM141.4,92.24c-2.4.4-3.8-1.8-2.8-4.4.3-.9,1.5-1.4,2.8-1.2,1.7.2,2.3,1,2.3,2.8s-.6,2.6-2.3,2.8ZM176.4,101.24c-2.4.4-3.8-1.8-2.8-4.4.3-.9,1.5-1.4,2.8-1.2,1.7.2,2.3,1,2.3,2.8s-.6,2.6-2.3,2.8ZM107.1,269.44c-2.2-1.2-2.5-3-.7-4.8s3.6-1.5,4.8.7c1.4,2.8-1.3,5.5-4.1,4.1ZM167.4,219.24c-2.4.4-3.8-1.8-2.8-4.4.3-.9,1.5-1.4,2.8-1.2,1.7.2,2.3,1,2.3,2.8s-.6,2.6-2.3,2.8ZM181.4,186.24c-2.4.4-3.8-1.8-2.8-4.4.3-.9,1.5-1.4,2.8-1.2,1.7.2,2.3,1,2.3,2.8s-.6,2.6-2.3,2.8Z"/>
  <path class="r" d="M103.9,158.24c-2.1,2.3-2.2,6.5-.3,8.2.8.6,1.6,3,1.8,5.3.3,3.9.5,4.2,3.3,4.2s3-.3,3.3-4.2c.2-2.3,1-4.7,1.8-5.3,1.8-1.6,1.8-5-.2-7.8-1.9-2.8-7.4-3-9.7-.4Z"/>
  <path class="r" d="M101.2,6.04c0,3.8-.7,6.1-3,9.7-3.8,6-4,10.3-.5,11.9,1.9.9,2.9.7,5-.6,5.8-3.8,8.2-12.4,5.1-18.4-.8-1.5-2.6-3.8-4-5.1l-2.6-2.4v4.9Z"/>
  <path class="r" d="M146.9,27.84c-.1-.2-2,.7-4.2,1.9-8.3,4.7-10.6,13-5.1,18.5,5,5,10.4,0,7.7-7.3-1.5-4.2-1.4-6.4.4-9.9.9-1.6,1.4-3,1.2-3.2Z"/>
  <path class="r" d="M40.2,47.24c-7.9,7.9-7.6,23.2.5,23.2,4.9,0,7.1-5.8,4.5-12-1.2-3-1-9.7.5-13.3,1.2-2.9-1.5-1.9-5.5,2.1Z"/>
  <path class="r" d="M69.2,214.44c2.1,0,4.3,1.4,8.7,5.8,9.5,9.4,27.2,22.2,30.7,22.2s20.3-12.6,30.1-22.5c14.9-14.9,19.7-24.3,24.6-47.4,5.5-26.8,7.5-50.4,4.4-53.5-1.7-1.6-4-2.4-31-9.6-17.2-4.6-20.4-5.9-20.5-8.3,0-.4-1.5-1.6-3.2-2.7-3.6-2.2-4.3-2.3-7.3-1.1-6.8,2.8-7.7,12.4-1.5,15.6,4.1,2.1,6.4,1.9,9.6-.9l2.8-2.3,9.1,2.4c15.2,4.1,34.9,9.4,36.9,10,1.7.5,1.8,1.3,1.1,9.2-1.6,21-6.9,49.1-11,59.4-3.4,8.3-10.5,18.4-18.3,26.2s-23.6,19.5-26.1,19.5c-2.1,0-19.1-12.7-25.9-19.3-4.9-4.9-5.2-5.4-4.7-8.9,1.5-8.8-7.4-14.2-14-8.5-5.7,4.8-2,14.7,5.5,14.7ZM108.4,108.24c-2.4.4-3.8-1.8-2.8-4.4.3-.9,1.5-1.4,2.8-1.2,1.7.2,2.3,1,2.3,2.8s-.6,2.6-2.3,2.8ZM67.4,203.64c1.4-1.4,1.2-1.4,3.2-.6,2.1.8,2.1,5,0,5.8-3.2,1.2-5.7-2.7-3.2-5.2Z"/>
  <g>
    <path class="t" d="M137.23,146.83c-5.9,3.1-6.6,10.2-1.6,14.4,3.8,3.2,8.1,2.9,11.6-1.1,2.9-3.3,2.8-7.5-.3-11.2-1.9-2.2-2.5-4.1-2.5-7.6,0-5.9-.8-6.3-18.4-11.5-13.7-4-19.7-4.8-24.6-3.1-1.4.5-7.8,2.5-14.2,4.5-15.1,4.6-15,4.4-13.7,19,2.4,26.2,7.1,40.1,17,50.9,7.5,8.3,16.6,14.8,19.3,14,2.9-.9,15.1-10.8,17.8-14.4,1.5-2.1,3-3,4.9-3,7.4,0,11-9.9,5.4-14.7-3.9-3.4-8.7-3.1-11.9.8-2.8,3.3-3.2,5.9-1.5,9.1.9,1.8.5,2.7-3.7,7-2.7,2.7-6.6,6-8.6,7.4l-3.7,2.6-4.9-3.8c-6.7-5.4-13.7-13.5-16.8-19.5-1.4-2.8-3.4-9-4.4-13.7-2.3-10.3-4.6-30.2-3.8-32.3.4-1,6.3-3.2,15.3-5.8l14.7-4.3,13.1,3.7c18.1,5.1,17.7,4.9,17.7,8.4,0,2.1-.7,3.4-2.2,4.2ZM130.73,186.43c1.8-.8,2.9-.3,4.1,1.6,1.4,2.1-1.3,5.1-3.7,4.1-2-.7-2.3-5-.4-5.7ZM140.63,151.93c1.7.2,2.3,1,2.3,2.8s-.6,2.6-2.3,2.8c-2.4.4-3.8-1.8-2.8-4.4.3-.9,1.5-1.4,2.8-1.2Z"/>
    <g>
      <path class="p" d="M139.84,157.57c.11-.82.55-1.47,1.07-1.61.22-.07.35.05.61.18.26.13.65.22,1.01.43.35.21.58.6.45,1.11-.12.51-.66,1.01-1.24,1.16-1.08.3-2.01-.44-1.9-1.27Z"/>
      <path class="p" d="M140.63,151.93c-.05.41-.28.75-.48,1.02-.2.26-.4.45-.58.5-.19.06-.34-.04-.61-.16-.26-.13-.64-.22-1.01-.42-.36-.19-.6-.6-.46-1.11.12-.5.62-1.01,1.23-1.18.61-.18,1.18-.03,1.51.25.35.29.45.69.4,1.1Z"/>
    </g>
    <g>
      <path class="p" d="M133.65,191.87c-.21-.35-.28-.76-.3-1.09-.02-.34.01-.61.13-.81.14-.2.33-.3.64-.42.29-.11.67-.26,1.09-.27.41,0,.79.2,1,.65.19.43.17,1.1-.18,1.63-.33.54-.87.83-1.33.85-.47.02-.83-.19-1.05-.55Z"/>
      <path class="p" d="M130.73,186.43c.13.4.15.81.25,1.07.09.27.2.42.11.6-.15.37-.81.94-1.63,1-.41.01-.81-.16-1.05-.53-.25-.37-.34-.94-.11-1.56.25-.62.82-1.12,1.38-1.19.56-.07.92.23,1.04.61Z"/>
    </g>
    <g>
      <path class="p" d="M100.64,203.56c.56-.61,1.5-.66,2.11-.13.61.54.68,1.46.16,2.11-.52.64-1.5.72-2.13.15-.65-.56-.7-1.52-.14-2.13Z"/>
      <path class="p" d="M94.32,197.11c.63-.55,1.56-.48,2.11.11.55.6.51,1.55-.09,2.11-.6.57-1.56.53-2.13-.1-.58-.62-.51-1.59.11-2.13Z"/>
      <path class="p" d="M88.8,189.97c.69-.45,1.62-.28,2.08.38.46.66.32,1.58-.35,2.08-.66.49-1.62.34-2.11-.36-.49-.71-.32-1.65.38-2.11Z"/>
      <path class="p" d="M84.92,181.84c.78-.26,1.63.15,1.91.9.28.76-.1,1.61-.87,1.92-.77.31-1.65-.09-1.95-.89-.29-.8.12-1.67.91-1.94Z"/>
      <path class="p" d="M82.47,173.15c.81-.18,1.6.33,1.8,1.11.19.79-.29,1.6-1.09,1.81-.8.21-1.63-.28-1.83-1.11-.2-.83.31-1.65,1.12-1.82Z"/>
      <path class="p" d="M80.82,164.27c.82-.13,1.59.43,1.72,1.24.13.81-.41,1.59-1.23,1.73-.81.14-1.6-.41-1.73-1.24-.14-.83.42-1.6,1.24-1.73Z"/>
      <path class="p" d="M79.56,155.33c.82-.1,1.56.48,1.68,1.3.11.82-.47,1.57-1.29,1.69-.82.11-1.57-.47-1.68-1.3-.11-.83.48-1.59,1.3-1.69Z"/>
      <path class="p" d="M78.64,146.34c.83-.06,1.54.55,1.61,1.37.07.82-.54,1.55-1.36,1.63-.83.08-1.56-.53-1.63-1.37-.08-.84.55-1.57,1.37-1.63Z"/>
      <path class="p" d="M81.44,138.97c.32.77-.04,1.63-.7,1.96-.33.16-.69.18-.98.05-.24-.18-.62-.33-.96-.59-.32-.23-.48-.65-.27-1.14.15-.44.45-.79.86-1,.83-.41,1.73-.04,2.04.72Z"/>
      <path class="p" d="M89.98,136.01c.24.79-.2,1.63-.98,1.88-.79.25-1.63-.18-1.89-.97-.26-.79.18-1.64.98-1.89.8-.26,1.65.19,1.89.98Z"/>
      <path class="p" d="M98.64,133.45c.23.8-.23,1.63-1.03,1.86-.8.23-1.63-.22-1.86-1.02-.23-.8.23-1.63,1.03-1.86.8-.23,1.63.22,1.86,1.02Z"/>
      <path class="p" d="M107.31,130.92c.23.8-.23,1.63-1.02,1.86-.8.23-1.63-.22-1.87-1.02s.23-1.63,1.02-1.86c.8-.23,1.63.22,1.87,1.02Z"/>
      <path class="p" d="M116,132.62c-.23.8-1.06,1.26-1.86,1.03s-1.27-1.06-1.04-1.85c.23-.8,1.06-1.26,1.86-1.03.8.23,1.27,1.06,1.04,1.85Z"/>
      <path class="p" d="M124.7,135.07c-.22.8-1.06,1.26-1.86,1.04-.8-.23-1.27-1.05-1.04-1.85.22-.8,1.06-1.26,1.86-1.04s1.27,1.05,1.04,1.85Z"/>
      <path class="p" d="M133.37,137.59c-.25.79-1.08,1.23-1.87,1-.79-.23-1.25-1.07-1.01-1.86s1.07-1.25,1.87-1.01c.81.24,1.26,1.09,1.01,1.88Z"/>
      <path class="p" d="M139.42,142.88c-.42-.02-.78-.17-1.06-.44-.27-.28-.44-.64-.46-.92-.02-.12.02-.25.06-.31l.21-.31c.2-.25.34-.61.65-.89.3-.27.73-.43,1.18-.19.48.2.83.85.88,1.4.05.55-.13.94-.4,1.21-.27.27-.65.47-1.07.44Z"/>
      <path class="p" d="M133.98,149.55c-.67-.47-.76-1.54-.02-2.21.72-.68,1.76-.54,2.19.14.46.71.35,1.57-.13,2.04-.51.45-1.35.51-2.04.03Z"/>
      <path class="p" d="M133.15,158.07c-.37.18-.79.19-1.17.02-.36-.18-.66-.55-.82-1.01-.11-.48-.04-.96.17-1.29.24-.35.6-.56,1.01-.59.41-.04.8.09,1.09.29.32.19.55.46.62.79.12.32.05.67-.11,1-.14.32-.41.63-.78.81Z"/>
      <path class="p" d="M140.07,163.35c-.07.82-.99,1.39-1.96,1.06-.96-.35-1.29-1.34-.87-2.05.43-.71,1.25-1.01,1.86-.78.6.21,1.04.94.96,1.77Z"/>
      <path class="p" d="M147.76,159.47c.68.46.76,1.52.1,2.18-.66.68-1.69.64-2.19-.03-.49-.66-.46-1.54.03-2.06.51-.52,1.37-.57,2.06-.1Z"/>
      <path class="p" d="M148.29,150.95c.37-.2.78-.22,1.15-.06.38.15.71.49.86.96.32.95-.25,1.85-1.07,1.94-.83.09-1.56-.35-1.77-.98-.21-.63.1-1.46.82-1.86Z"/>
      <path class="p" d="M144.48,142.96c.83-.05,1.53.53,1.66,1.21.12.68-.31,1.42-1.08,1.73-.77.31-1.69-.21-1.87-1.17-.17-.95.46-1.72,1.29-1.77Z"/>
      <path class="p" d="M141.43,135.1c.2-.36.54-.6.94-.69.4-.05.87.06,1.27.37.39.37.64.81.61,1.27-.01.44-.23.79-.58,1s-.77.29-1.1.29c-.31-.01-.66-.05-.85-.26-.25-.19-.41-.5-.46-.87-.07-.35-.03-.76.17-1.12Z"/>
      <path class="p" d="M132.99,131.92c.24-.79,1.09-1.23,1.89-.98.8.26,1.24,1.11.98,1.9s-1.11,1.22-1.89.96c-.78-.25-1.23-1.09-.98-1.88Z"/>
      <path class="p" d="M124.33,129.35c.23-.8,1.06-1.26,1.87-1.02.8.23,1.26,1.07,1.02,1.87-.23.8-1.07,1.24-1.87,1.01-.79-.23-1.25-1.06-1.03-1.86Z"/>
      <path class="p" d="M115.58,127.08c.18-.81.99-1.31,1.81-1.12.82.2,1.32,1.02,1.12,1.82-.2.8-1.01,1.29-1.81,1.1-.8-.18-1.3-.98-1.12-1.79Z"/>
      <path class="p" d="M106.65,125.89c-.02-.82.7-1.51,1.59-1.45.88.05,1.51.8,1.42,1.62-.09.82-.81,1.41-1.58,1.37-.78-.05-1.4-.7-1.42-1.54Z"/>
      <path class="p" d="M97.88,127.86c-.27-.78.16-1.62.95-1.87.79-.25,1.65.18,1.93.96s-.15,1.62-.95,1.87c-.8.25-1.66-.18-1.93-.96Z"/>
      <path class="p" d="M89.26,130.59c-.25-.79.19-1.63.98-1.88s1.64.19,1.89.97c.26.79-.18,1.63-.98,1.88s-1.64-.18-1.89-.97Z"/>
      <path class="p" d="M80.65,133.31c-.27-.78.16-1.64.96-1.91.8-.26,1.65.18,1.9.97.25.79-.19,1.63-.97,1.88-.77.26-1.62-.17-1.89-.95Z"/>
      <path class="p" d="M73.54,138.34c-.39-.14-.68-.44-.82-.85-.09-.39,0-.9.28-1.36.34-.41.79-.65,1.19-.69.42-.02.81.18,1.07.49.27.32.37.7.39,1.05.04.37-.01.68-.22.9-.14.26-.42.41-.78.48-.32.1-.72.12-1.11-.02Z"/>
      <path class="p" d="M73.27,147.3c-.83.07-1.55-.55-1.61-1.39-.07-.84.58-1.58,1.4-1.61.83-.04,1.53.58,1.59,1.39.06.82-.55,1.54-1.38,1.61Z"/>
      <path class="p" d="M74.16,156.29c-.82.1-1.57-.5-1.67-1.33-.08-.83.52-1.58,1.34-1.66.82-.08,1.56.51,1.64,1.34.09.82-.49,1.56-1.32,1.66Z"/>
      <path class="p" d="M75.39,165.24c-.82.14-1.59-.43-1.73-1.26-.12-.83.45-1.6,1.27-1.72.82-.12,1.58.45,1.69,1.26.14.81-.42,1.58-1.23,1.71Z"/>
      <path class="p" d="M77.14,174.1c-.81.19-1.61-.32-1.8-1.14-.19-.82.32-1.63,1.14-1.8.81-.17,1.6.35,1.79,1.14.18.8-.32,1.6-1.13,1.8Z"/>
      <path class="p" d="M79.68,182.77c-.78.28-1.65-.14-1.93-.94-.25-.81.18-1.67.98-1.91s1.63.19,1.87.96c.27.77-.14,1.61-.92,1.89Z"/>
      <path class="p" d="M83.33,191.02c-.72.4-1.65.11-2.05-.65-.37-.77-.06-1.69.69-2.04.75-.35,1.64-.04,1.99.68.37.71.1,1.6-.63,2Z"/>
      <path class="p" d="M88.31,198.54c-.64.52-1.59.4-2.12-.28-.54-.67-.35-1.65.31-2.12.69-.48,1.58-.31,2.08.31.49.63.37,1.57-.27,2.09Z"/>
      <path class="p" d="M94.44,205.17c-.57.6-1.53.6-2.14,0-.59-.61-.59-1.56,0-2.14s1.54-.57,2.11.02c.58.57.59,1.51.02,2.11Z"/>
      <path class="p" d="M101.3,211.04c-.49.66-1.46.8-2.12.26-.67-.53-.78-1.48-.25-2.12.53-.63,1.46-.73,2.1-.24.63.51.76,1.42.27,2.09Z"/>
      <path class="p" d="M109.22,215.19c-.01.41-.21.77-.6.99-.42.24-.87.24-1.36.1-.91-.34-1.27-1.27-.88-2.01.37-.73,1.23-1.06,1.88-.82.31.08.56.37.69.63.15.29.29.69.28,1.11Z"/>
      <path class="p" d="M116.83,210.5c.51.65.39,1.61-.29,2.11-.68.51-1.63.37-2.11-.3-.48-.67-.34-1.6.31-2.09.65-.49,1.59-.37,2.1.28Z"/>
      <path class="p" d="M123.76,204.7c.56.61.51,1.57-.13,2.13-.64.56-1.59.5-2.13-.13-.54-.63-.47-1.58.14-2.11.61-.54,1.55-.49,2.11.12Z"/>
      <path class="p" d="M130.12,198.34c.36.75.27,1.54-.18,1.99-.47.44-1.36.53-2.03.03-.66-.49-.77-1.51-.02-2.21.36-.34.85-.51,1.27-.46.42.04.77.29.96.65Z"/>
      <path class="p" d="M138.31,195.14c.65.55.58,1.57-.2,2.21-.41.28-.88.38-1.28.32-.4-.09-.74-.37-.92-.73-.18-.38-.19-.77-.12-1.11.06-.37.22-.68.5-.86.49-.42,1.4-.34,2.01.18Z"/>
      <path class="p" d="M140.3,186.73c.78-.26,1.7.31,1.79,1.32.09.49-.13.94-.39,1.24-.28.3-.65.45-1.07.42-.85-.08-1.45-.7-1.53-1.35-.05-.66.41-1.36,1.2-1.63Z"/>
      <path class="p" d="M133.93,180.9c.09-.4.36-.74.73-.9.37-.17.86-.19,1.3.01.91.4,1.19,1.4.72,2.09-.46.68-1.31.92-1.93.66-.31-.15-.54-.4-.7-.72-.15-.34-.22-.73-.12-1.13Z"/>
      <path class="p" d="M125.95,183.92c-.64-.51-.71-1.53.01-2.2.72-.68,1.77-.54,2.2.18.43.71.32,1.56-.17,2.03-.5.45-1.39.51-2.05,0Z"/>
      <path class="p" d="M124.18,192.21c-.74.35-1.7-.06-1.95-1.08-.24-1.02.46-1.89,1.29-1.84.83.05,1.48.55,1.63,1.15.14.61-.22,1.41-.97,1.77Z"/>
      <path class="p" d="M121.03,199.73c-.59-.58-.61-1.52-.05-2.11.56-.59,1.48-.62,2.11-.08.63.54.66,1.52.08,2.14-.58.62-1.55.64-2.13.06Z"/>
      <path class="p" d="M114.3,205.75c-.52-.65-.42-1.58.2-2.11.63-.52,1.57-.45,2.11.18.54.63.47,1.58-.18,2.13-.65.55-1.61.45-2.13-.2Z"/>
      <g>
        <g class="aa">
          <polygon class="p" points="107.61 211.12 107.56 211.08 107.52 211.04 107.48 211 107.45 210.96 107.42 210.91 107.39 210.86 107.36 210.81 107.34 210.76 107.3 210.65 107.27 210.54 107.26 210.41 107.26 210.29 107.26 210.16 107.28 210.03 107.32 209.9 107.36 209.77 107.42 209.64 107.48 209.51 107.56 209.38 107.65 209.25 107.75 209.14 107.85 209.03 107.96 208.93 108.08 208.85 108.19 208.77 108.31 208.71 108.44 208.66 108.56 208.61 108.68 208.66 108.79 208.72 108.91 208.79 109.02 208.87 109.13 208.96 109.24 209.06 109.34 209.17 109.43 209.3 109.52 209.42 109.59 209.56 109.65 209.69 109.7 209.82 109.73 209.96 109.76 210.09 109.77 210.22 109.78 210.35 109.77 210.47 109.75 210.59 109.72 210.71 109.67 210.82 109.65 210.87 109.62 210.92 109.59 210.96 109.55 211.01 109.52 211.05 109.48 211.09 109.43 211.13 109.39 211.16 109.34 211.19 109.29 211.22 109.24 211.24 109.19 211.26 109.13 211.28 109.08 211.29 109.02 211.3 108.97 211.31 108.85 211.32 108.73 211.31 108.61 211.28 108.49 211.25 108.37 211.28 108.25 211.3 108.13 211.3 108.02 211.29 107.96 211.28 107.91 211.27 107.85 211.25 107.8 211.23 107.75 211.21 107.7 211.18 107.65 211.15 107.61 211.12"/>
        </g>
        <g class="ag">
          <polygon class="p" points="107.65 209.25 107.75 209.14 107.85 209.03 107.96 208.93 108.08 208.85 108.19 208.77 108.31 208.71 108.44 208.66 108.56 208.62 108.68 208.66 108.79 208.72 108.91 208.79 109.02 208.87 109.13 208.96 109.24 209.06 109.34 209.17 109.43 209.3 109.52 209.42 109.59 209.56 109.65 209.69 109.7 209.82 109.73 209.96 109.76 210.09 109.77 210.22 109.78 210.35 109.77 210.47 109.75 210.59 109.72 210.71 109.67 210.82 109.65 210.87 109.62 210.92 109.59 210.96 109.55 211.01 109.52 211.05 109.48 211.09 109.43 211.13 109.39 211.16 109.34 211.19 109.29 211.22 109.24 211.24 109.19 211.26 109.13 211.28 109.08 211.29 109.02 211.3 108.97 211.31 108.85 211.32 108.73 211.31 108.61 211.28 108.49 211.25 108.37 211.28 108.25 211.3 108.13 211.3 108.02 211.29 107.96 211.28 107.91 211.27 107.85 211.25 107.8 211.23 107.75 211.21 107.7 211.18 107.65 211.15 107.61 211.12 107.56 211.08 107.52 211.04 107.48 211 107.45 210.96 107.42 210.91 107.39 210.86 107.36 210.81 107.34 210.76 107.3 210.65 107.27 210.54 107.26 210.41 107.26 210.29 107.26 210.16 107.28 210.03 107.32 209.9 107.36 209.77 107.42 209.64 107.48 209.51 107.56 209.38 107.65 209.25"/>
        </g>
      </g>
    </g>
  </g>
  <g>
    <path class="t" d="M56.43,181.73c4.7,0,7.8-2.3,8.6-6.5.7-4-1.3-8-5-9.7-1.6-.7-2.6-2.2-3-4.7-1.8-10.4-3.6-26.2-3.6-31.8v-6.2l5.7-1.7c4.8-1.4,6.2-1.5,8.8-.4,1.6.7,4.4,1.5,6.2,1.7,7.1,1.1,11.2-8.9,5.8-14.2-1.6-1.7-3.5-2.5-6-2.5-3.8,0-8.5,3.5-8.5,6.4,0,1.1-2.4,2.3-7.6,3.8-10.7,3.1-10.9,3.5-9.5,20,.7,7.2,1.8,16.7,2.6,21.1,1.3,7.6,1.3,8.1-.7,10.8-4.4,6-.9,13.9,6.2,13.9ZM54.93,171.13c2.5-1.9,4.7-.6,4.3,2.5-.2,1.8-1,2.7-2.5,2.9-2.9.4-4.3-3.6-1.8-5.4ZM71.43,112.63c1.2-2.2,3-2.5,4.8-.7s1.5,3.6-.7,4.8c-2.8,1.4-5.5-1.3-4.1-4.1Z"/>
    <g>
      <path class="p" d="M77.04,115.43c-.36-.23-.57-.57-.78-.81-.2-.25-.35-.35-.38-.5,0-.28.13-1.18.76-1.72.32-.25.75-.36,1.18-.18.43.16.88.63,1.02,1.37.15.74-.18,1.49-.59,1.78-.41.32-.87.27-1.2.05Z"/>
      <path class="p" d="M71.43,112.63c.36.2.64.52.82.8.19.29.31.54.3.76.02.22-.12.45-.28.73-.2.28-.4.61-.75.84-.33.22-.8.27-1.2,0-.43-.25-.74-.84-.77-1.52,0-.68.31-1.24.7-1.51.4-.28.82-.29,1.18-.09Z"/>
    </g>
    <g>
      <path class="p" d="M58.28,175.87c-.27-.31-.42-.68-.55-.97-.12-.3-.19-.51-.12-.79.15-.54.83-1.15,1.65-1.15.82,0,1.53.82,1.23,1.97-.15.57-.59,1.06-1.06,1.22-.47.17-.89.03-1.16-.28Z"/>
      <path class="p" d="M54.93,171.13c.24.33.35.74.38,1.06.04.34.07.59-.03.77-.07.2-.3.34-.57.51-.29.16-.65.35-1.06.38-.42.04-.81-.13-1.06-.54-.26-.4-.29-1.03-.03-1.64.3-.59.82-.96,1.28-1.02.47-.05.84.13,1.09.46Z"/>
    </g>
    <g>
      <path class="p" d="M63.1,120.14c.12.82-.35,1.57-1.1,1.76-.76.19-1.57-.28-1.79-1.08-.22-.8.25-1.63,1.08-1.84.84-.21,1.69.33,1.81,1.15Z"/>
      <path class="p" d="M71.7,121.97c-.19.8-1.04,1.29-1.87,1.04-.83-.25-1.27-1.13-.98-1.9.29-.77,1.11-1.19,1.85-.97.74.23,1.19,1.03,1,1.83Z"/>
      <path class="p" d="M79.98,120.4c.3.28.46.68.42,1.1-.05.39-.3.81-.7,1.11-.88.55-1.88.26-2.16-.55-.26-.75-.05-1.62.47-1.93.25-.21.58-.25.95-.19.35.03.72.17,1.02.46Z"/>
      <path class="p" d="M82.13,112.12c.78-.22,1.69.37,1.73,1.36.06.48-.13.92-.42,1.21-.29.29-.67.43-1.08.39-.41-.04-.78-.23-1.04-.48-.25-.25-.4-.56-.45-.89-.01-.66.45-1.34,1.26-1.57Z"/>
      <path class="p" d="M76.21,106c.17-.81,1.12-1.29,2.05-.85.92.45,1.14,1.49.61,2.13-.52.64-1.36.84-1.91.57-.56-.27-.92-1.04-.75-1.85Z"/>
      <path class="p" d="M67.89,108.14c-.54-.63-.39-1.64.42-2.14.8-.5,1.78-.19,2.1.58.32.76.07,1.6-.52,1.98-.6.36-1.46.21-2-.41Z"/>
      <path class="p" d="M62.26,114.46c-.3-.77.05-1.62.68-1.94.63-.31,1.34-.04,1.93.54.6.6.28,1.72-.57,2.13-.84.42-1.74.03-2.04-.74Z"/>
      <path class="p" d="M53.77,117.19c-.28-.78.16-1.65.96-1.9.81-.26,1.64.2,1.87,1,.24.8-.21,1.62-.97,1.86-.77.23-1.58-.19-1.86-.97Z"/>
      <path class="p" d="M47.9,123.14c-.8-.11-1.38-.95-1.08-1.91.31-.99,1.38-1.36,2.05-.87.68.49.97,1.22.8,1.81-.19.6-.93,1.09-1.77.98Z"/>
      <path class="p" d="M48.01,132.04c-.83.06-1.55-.56-1.61-1.38-.05-.83.58-1.55,1.41-1.59.83-.04,1.53.58,1.58,1.38.06.81-.56,1.52-1.39,1.58Z"/>
      <path class="p" d="M48.84,140.93c-.82.09-1.56-.5-1.65-1.32-.09-.82.52-1.55,1.34-1.64.82-.08,1.56.51,1.64,1.32.08.81-.51,1.55-1.34,1.63Z"/>
      <path class="p" d="M49.87,149.79c-.82.11-1.57-.47-1.67-1.29-.1-.82.49-1.56,1.31-1.66.82-.1,1.57.48,1.67,1.29.1.81-.48,1.55-1.3,1.66Z"/>
      <path class="p" d="M51.19,158.62c-.82.13-1.59-.41-1.73-1.21-.14-.82.41-1.6,1.23-1.73.82-.13,1.58.41,1.73,1.21.14.82-.41,1.59-1.23,1.73Z"/>
      <path class="p" d="M50.66,167.23c-.69-.48-.82-1.39-.62-1.89.12-.26.33-.43.64-.59.32-.15.69-.28,1.1-.23.4.04.79.25.98.63.21.36.24.92.02,1.41-.46,1.01-1.46,1.14-2.13.67Z"/>
      <path class="p" d="M48.54,175.58c-.79.22-1.67-.38-1.72-1.37-.06-.48.16-.92.44-1.2.29-.29.67-.42,1.08-.38.84.11,1.42.74,1.48,1.39.02.66-.47,1.34-1.28,1.56Z"/>
      <path class="p" d="M54.54,181.51c-.15.82-1.07,1.34-2,.94-.47-.15-.76-.58-.89-.94-.13-.39-.07-.78.16-1.13.23-.34.58-.57.92-.69.35-.14.66-.09.98,0,.31.1.52.41.69.71.16.31.23.71.14,1.12Z"/>
      <path class="p" d="M62.87,179.46c.29.29.44.7.37,1.1-.05.41-.31.83-.73,1.09-.87.54-1.85.18-2.13-.6-.28-.79,0-1.6.52-1.94.53-.32,1.36-.23,1.96.34Z"/>
      <path class="p" d="M64.81,171.17c.79-.25,1.67.31,1.78,1.29.12.98-.62,1.72-1.45,1.65-.82-.07-1.45-.66-1.54-1.32-.06-.66.42-1.38,1.2-1.62Z"/>
      <path class="p" d="M58.93,164.85c.27-.31.63-.5.95-.61.16-.05.31-.09.46-.1.16,0,.25-.01.51.12.91.43,1.13,1.46.63,2.11-.5.66-1.34.86-1.92.59-.11-.06-.38-.23-.53-.4-.17-.18-.29-.38-.35-.59-.12-.42-.01-.83.26-1.14Z"/>
      <path class="p" d="M56.32,156.5c.82-.12,1.58.43,1.71,1.23.12.81-.43,1.57-1.24,1.7-.82.13-1.59-.41-1.72-1.23-.13-.82.43-1.58,1.25-1.71Z"/>
      <path class="p" d="M55.09,147.67c.82-.1,1.57.47,1.68,1.28.1.81-.47,1.56-1.29,1.67-.82.11-1.58-.46-1.68-1.28-.11-.82.47-1.57,1.3-1.67Z"/>
      <path class="p" d="M54.09,138.8c.82-.08,1.56.51,1.64,1.32.08.81-.51,1.54-1.33,1.63-.82.09-1.57-.5-1.65-1.32-.08-.82.51-1.55,1.34-1.64Z"/>
      <path class="p" d="M53.44,129.9c.82-.02,1.52.61,1.56,1.41.04.8-.58,1.5-1.41,1.56-.82.06-1.54-.57-1.59-1.41-.04-.84.61-1.55,1.44-1.56Z"/>
      <g>
        <g class="ae">
          <polygon class="p" points="53 121.4 53.05 121.38 53.11 121.37 53.16 121.36 53.22 121.36 53.28 121.36 53.33 121.36 53.39 121.37 53.45 121.38 53.56 121.42 53.67 121.46 53.78 121.52 53.88 121.59 53.98 121.67 54.07 121.76 54.16 121.87 54.25 121.98 54.32 122.1 54.39 122.23 54.45 122.37 54.5 122.51 54.53 122.66 54.56 122.81 54.58 122.96 54.58 123.1 54.57 123.24 54.55 123.37 54.52 123.5 54.49 123.62 54.38 123.7 54.26 123.76 54.14 123.82 54.01 123.86 53.87 123.9 53.73 123.93 53.58 123.94 53.43 123.95 53.27 123.94 53.12 123.93 52.98 123.9 52.84 123.86 52.71 123.82 52.59 123.76 52.47 123.7 52.36 123.62 52.27 123.54 52.18 123.46 52.11 123.37 52.04 123.27 52.02 123.22 51.99 123.17 51.97 123.11 51.96 123.06 51.94 123 51.93 122.95 51.93 122.89 51.93 122.83 51.93 122.78 51.93 122.72 51.94 122.66 51.96 122.61 51.97 122.55 51.99 122.5 52.02 122.45 52.04 122.4 52.11 122.3 52.18 122.21 52.27 122.12 52.36 122.04 52.41 121.93 52.47 121.82 52.54 121.72 52.61 121.63 52.65 121.59 52.7 121.55 52.74 121.52 52.79 121.49 52.84 121.46 52.89 121.44 52.94 121.41 53 121.4"/>
        </g>
        <g class="af">
          <polygon class="p" points="54.5 122.51 54.53 122.66 54.56 122.81 54.58 122.96 54.58 123.1 54.57 123.24 54.55 123.37 54.52 123.5 54.49 123.62 54.38 123.7 54.26 123.76 54.14 123.82 54.01 123.86 53.87 123.9 53.73 123.93 53.58 123.94 53.43 123.95 53.27 123.94 53.12 123.93 52.98 123.9 52.84 123.86 52.71 123.82 52.59 123.76 52.47 123.7 52.36 123.62 52.27 123.54 52.18 123.46 52.11 123.37 52.04 123.27 52.02 123.22 51.99 123.17 51.97 123.11 51.96 123.06 51.94 123 51.93 122.95 51.93 122.89 51.93 122.83 51.93 122.78 51.93 122.72 51.94 122.66 51.96 122.61 51.97 122.55 51.99 122.5 52.02 122.45 52.04 122.4 52.11 122.3 52.18 122.21 52.27 122.12 52.36 122.04 52.41 121.93 52.47 121.82 52.54 121.72 52.61 121.63 52.65 121.59 52.7 121.55 52.74 121.52 52.79 121.49 52.84 121.46 52.89 121.44 52.94 121.41 53 121.4 53.05 121.38 53.11 121.37 53.16 121.36 53.22 121.36 53.28 121.36 53.33 121.36 53.39 121.37 53.45 121.38 53.56 121.42 53.67 121.46 53.78 121.52 53.88 121.59 53.98 121.67 54.07 121.76 54.16 121.87 54.25 121.98 54.32 122.1 54.39 122.23 54.45 122.37 54.5 122.51"/>
        </g>
      </g>
    </g>
  </g>
  <g>
    <path class="t" d="M207.83,131.93c-.7,3.6-2,7.8-2.9,9.2-2.3,3.4-5.8,3.4-7.3.1-1.6-3.5-1.6-4,1.5-13.6,2.1-6.5,2.7-10.4,2.8-17.4,0-8-.3-9.7-3.1-15.5-2.9-6.1-12.5-18-14.5-18-.5,0-.9,1.5-.9,3.2,0,1.8-.5,4.9-1,6.9-1,3.4-1.1,3.5-6,3.5s-5,0-5-3c0-9.3-6.4-22.6-14.8-31l-5.7-5.7-1.1,5.3c-2.7,13.6-6.5,18.3-14.3,18.2-5.5,0-10.1-2.5-12.6-6.6-2.7-4.6-2.1-8.8,2.4-17,6.8-12.4,5.4-19.9-6.5-34.1-3.1-3.7-6-6.7-6.3-6.7s-.6,3.3-.7,7.3c0,11.3-2.8,15.2-20.4,29-8,6.3-11.1,11.8-11.1,19.9,0,4.1.7,8.4,2,11.9q2.5,6.5.4,7.3c-2.3.9-8.8-3.7-11-7.6-2.4-4.4-2.3-18.3.1-25.1,1-2.7,1.5-5.1,1.2-5.4-1-1-19.1,18.3-22.5,24-1.8,3.1-4.4,8.5-5.7,11.9-1.4,3.5-2.9,7-3.5,7.8-.5.8-1.2,2.3-1.5,3.2-.8,2.3-1.9,2.3-4.5-.3-3.1-3.1-5.8-9.8-5.9-14.4l-.1-4-5.8,6.2c-3.3,3.4-7.4,9.1-9.2,12.9-3.1,6.2-3.4,7.7-3.3,15.4,0,5,.8,11,1.8,14.5,3.7,12.5,4,14.4,2.8,17-.8,1.7-2,2.5-3.7,2.5-2.1,0-3-.8-4.6-4.4-1-2.4-2.2-6.5-2.6-9.1-1-7.8-2.5-3.6-3.1,8.9-.4,9.5-.1,13.1,1.7,20.9,5,21.8,18.1,40.7,37,53.6,4.9,3.4,9.6,7.8,13.6,12.8,3.5,4.3,8.6,10,11.4,12.8,4,3.9,5.1,5.6,5.1,8.1,0,4.6.9,6.3,4.1,7.9,4.2,2.2,6.7,1.8,10-1.4,3.6-3.7,3.8-7.9.6-11.7-2-2.3-3.2-2.7-7.7-2.8-5.2-.1-5.4-.2-11.2-6.6-10.9-12.1-18.7-24.1-23.1-36-3.1-8.2-7.9-29.3-10.8-47.7l-2.2-14.2,2.7-3.1c4.5-5.4,2.9-11.4-3.6-14.1-1.8-.7-3.6-1.8-4-2.3-1.3-1.8-.9-10.3.5-11.4.6-.6,3.8-1.7,7-2.5l5.7-1.5,2.9,2.9c5.1,5,9.2,3.9,15.8-4.4.7-.9,11.5-4,26.3-7.7l25.1-6.1,12.1,2.7c11.3,2.6,12.1,3,13,5.6,2.1,6.1,10.7,7.3,14.8,2,2-2.5,2.2-2.5,7.3-1.3,10.9,2.6,11.4,3,12.1,6.5,1.2,6.5,7.3,9.1,13.2,5.7,2.3-1.4,4.4-1.9,6-1.5,2.2.6,2.4,1.1,2.4,7.3,0,8.9-2.6,30.6-5.6,47.1-3.1,17.1-2.9,16.4-6.4,17.7-3,1.1-5,4.5-5,8.5,0,1.1,1.6,3.6,3.5,5.4l3.6,3.3-3.2,7.7-3.2,7.6-3.3-.7c-6.9-1.2-13.1,5.4-10.5,11.2,1.5,3.2.5,4.9-8.9,14.2-8.1,8.1-17.6,15.8-27.7,22.5-6,4-7.4,4.6-9.1,3.7-1.2-.6-3.6-1.1-5.6-1.1-9.1,0-10.5,14.5-1.5,16.5,5.4,1.2,10.9-2.7,10.9-7.8,0-.7,2.8-3,6.3-5.2,10.4-6.7,24.8-18.7,33.2-27.7,6.4-6.8,8.7-8.6,11.7-9.2,5.1-.9,8.2-4.9,7.5-9.8-.5-3.4-.1-3.9,5-8.3,12.2-10.6,22.4-26.4,27.5-42.5,1.9-6.4,2.3-9.6,2.3-21.5,0-16.9-1.1-21.2-3.1-11.3ZM75.83,246.23c.8-2.1,4.3-1.9,5.5.3,1.2,2.2-.3,4.2-3.1,4.2-2.1,0-3.3-2.2-2.4-4.5ZM26.63,122.93c1.7.2,2.3,1,2.3,2.8s-.6,2.6-2.3,2.8c-2.4.4-3.8-1.8-2.8-4.4.3-.9,1.5-1.4,2.8-1.2ZM46.23,99.63c-2.1-1.1-2.4-4.5-.5-5.2,2.4-1,4.2-.2,4.5,2.2.4,2.9-1.5,4.3-4,3ZM141.63,92.53c-2.4.4-3.8-1.8-2.8-4.4.3-.9,1.5-1.4,2.8-1.2,1.7.2,2.3,1,2.3,2.8s-.6,2.6-2.3,2.8ZM176.63,101.53c-2.4.4-3.8-1.8-2.8-4.4.3-.9,1.5-1.4,2.8-1.2,1.7.2,2.3,1,2.3,2.8s-.6,2.6-2.3,2.8ZM107.33,269.73c-2.2-1.2-2.5-3-.7-4.8s3.6-1.5,4.8.7c1.4,2.8-1.3,5.5-4.1,4.1ZM167.63,219.53c-2.4.4-3.8-1.8-2.8-4.4.3-.9,1.5-1.4,2.8-1.2,1.7.2,2.3,1,2.3,2.8s-.6,2.6-2.3,2.8ZM181.63,186.53c-2.4.4-3.8-1.8-2.8-4.4.3-.9,1.5-1.4,2.8-1.2,1.7.2,2.3,1,2.3,2.8s-.6,2.6-2.3,2.8Z"/>
    <g>
      <path class="p" d="M180.84,180.9c0,.82-.43,1.55-.54,1.68-.09.09-.16-.14-.49-.04-.33.13-.74.18-1.14.07-.4-.11-.71-.38-.86-.77-.18-.42.15-1.33.76-1.71.6-.42,1.23-.41,1.64-.22.41.2.62.57.64.98Z"/>
      <path class="p" d="M181.63,186.53c-.11-.81.49-1.58.56-1.69.05-.03.2.06.52.01.31-.03.71-.11,1.11-.02.4.09.75.35.85.82.12.45-.13,1.23-.78,1.65-.63.42-1.24.39-1.62.19-.39-.2-.59-.56-.65-.97Z"/>
    </g>
    <g>
      <path class="p" d="M166.84,213.9c0,.82-.43,1.55-.54,1.68-.09.09-.16-.14-.49-.04-.33.13-.74.18-1.14.07-.4-.11-.71-.38-.86-.77-.18-.42.15-1.33.76-1.71.6-.42,1.23-.41,1.64-.22.41.2.62.57.64.98Z"/>
      <path class="p" d="M167.63,219.53c-.11-.81.49-1.58.56-1.69.05-.03.2.06.52.01.31-.03.71-.11,1.11-.02.4.09.75.35.85.82.12.45-.13,1.23-.78,1.65-.63.42-1.24.39-1.62.19-.39-.2-.59-.56-.65-.97Z"/>
    </g>
    <g>
      <path class="p" d="M110.12,264.12c-.23.36-.57.57-.81.78-.25.2-.35.35-.5.38-.28,0-1.18-.13-1.72-.76-.25-.32-.36-.75-.18-1.18.16-.43.63-.88,1.37-1.02.74-.15,1.49.18,1.78.59.32.41.27.87.05,1.2Z"/>
      <path class="p" d="M107.33,269.73c.2-.36.52-.64.8-.82.29-.19.54-.31.76-.3.22-.02.45.12.73.28.28.2.61.4.84.75.22.33.27.8,0,1.2-.25.43-.84.74-1.52.77-.68,0-1.24-.31-1.51-.7-.28-.4-.29-.82-.09-1.18Z"/>
    </g>
    <g>
      <path class="p" d="M175.84,95.9c0,.82-.43,1.55-.54,1.68-.09.09-.16-.14-.49-.04-.33.13-.74.18-1.14.07-.4-.11-.71-.38-.86-.77-.18-.42.15-1.33.76-1.71.6-.42,1.23-.41,1.64-.22.41.2.62.57.64.98Z"/>
      <path class="p" d="M176.63,101.53c-.11-.81.49-1.58.56-1.69.05-.03.2.06.52.01.31-.03.71-.11,1.11-.02.4.09.75.35.85.82.12.45-.13,1.23-.78,1.65-.63.42-1.24.39-1.62.19-.39-.2-.59-.56-.65-.97Z"/>
    </g>
    <g>
      <path class="p" d="M140.84,86.9c0,.82-.43,1.55-.54,1.68-.09.09-.16-.14-.49-.04-.33.13-.74.18-1.14.07-.4-.11-.71-.38-.86-.77-.18-.42.15-1.33.76-1.71.6-.42,1.23-.41,1.64-.22.41.2.62.57.64.98Z"/>
      <path class="p" d="M141.63,92.53c-.11-.81.49-1.58.56-1.69.05-.03.2.06.52.01.31-.03.71-.11,1.11-.02.4.09.75.35.85.82.12.45-.13,1.23-.78,1.65-.63.42-1.24.39-1.62.19-.39-.2-.59-.56-.65-.97Z"/>
    </g>
    <g>
      <path class="p" d="M48.78,94.27c-.19.37-.49.65-.71.87-.23.21-.43.37-.69.39-.26.02-.58-.06-.9-.25-.32-.17-.62-.46-.77-.84-.15-.39-.12-.8.1-1.17.23-.36.68-.67,1.29-.73.6-.06,1.21.16,1.53.55.33.38.35.82.16,1.18Z"/>
      <path class="p" d="M46.23,99.63c.41-.73,1.24-1.03,1.64-1.03.22.02.35.17.58.37.23.22.55.43.79.78.23.32.29.8-.03,1.2-.3.42-.97.72-1.62.64-.66-.06-1.13-.41-1.35-.79-.22-.4-.21-.81-.02-1.18Z"/>
    </g>
    <g>
      <path class="p" d="M25.84,128.57c.11-.82.55-1.47,1.07-1.61.22-.07.35.05.61.18.26.13.65.22,1.01.43.35.21.58.6.45,1.11-.12.51-.66,1.01-1.24,1.16-1.08.3-2.01-.44-1.9-1.27Z"/>
      <path class="p" d="M26.63,122.93c-.05.41-.28.75-.48,1.02-.2.26-.4.45-.58.5-.19.06-.34-.04-.61-.16-.26-.13-.64-.22-1.01-.42-.36-.19-.6-.6-.46-1.11.12-.5.62-1.01,1.23-1.18.61-.18,1.18-.03,1.51.25.35.29.45.69.4,1.1Z"/>
    </g>
    <g>
      <path class="p" d="M81.37,249.31c-.35-.23-.58-.56-.78-.8-.21-.26-.33-.39-.36-.59-.02-.36.27-1.15.93-1.64.33-.23.79-.28,1.19-.06.41.2.78.71.87,1.4.08.7-.25,1.36-.65,1.65-.41.3-.86.26-1.2.04Z"/>
      <path class="p" d="M75.83,246.23c.39.15.68.45.87.73.21.29.32.57.33.83,0,.26-.12.5-.31.78-.19.27-.45.58-.81.79-.36.2-.79.2-1.19-.08-.4-.27-.68-.83-.69-1.46-.02-.63.28-1.15.63-1.42.37-.27.79-.32,1.17-.16Z"/>
    </g>
    <g>
      <path class="p" d="M148.31,62.17c-.79-.24-1.26-1.06-1.04-1.84.2-.79,1-1.27,1.81-1.08.8.19,1.3,1.02,1.09,1.85-.24.83-1.07,1.31-1.86,1.07Z"/>
      <path class="p" d="M144.47,70.3c-.61-.52-.8-1.44-.37-2.03.38-.64,1.28-.87,2.02-.49.73.38.97,1.33.5,2.12-.54.77-1.5.95-2.15.4Z"/>
      <path class="p" d="M136.59,74.1c-.02-.42.13-.79.36-1.08.23-.3.54-.51.91-.55.7-.13,1.45.38,1.7,1.16.26.79-.3,1.63-1.24,1.8-.46.06-.9-.06-1.21-.3-.31-.25-.5-.63-.52-1.04Z"/>
      <path class="p" d="M127.85,72.23c.41-.71,1.27-1,1.94-.72.67.3,1.06,1.09.83,1.9-.23.78-1.14,1.23-2,.86-.86-.37-1.19-1.32-.77-2.04Z"/>
      <path class="p" d="M121.98,65.58c.77-.28,1.61.03,1.95.67.32.65.14,1.49-.54,1.99-.65.49-1.68.26-2.11-.59-.44-.84-.09-1.8.7-2.07Z"/>
      <path class="p" d="M122.39,56.75c.77.29,1.18,1.12.96,1.85-.2.73-.99,1.19-1.8,1.05-.83-.15-1.33-1.01-1.08-1.89.26-.87,1.14-1.31,1.92-1.01Z"/>
      <path class="p" d="M126.32,48.61c.74.36,1.03,1.28.63,2.04-.4.77-1.29,1.01-2.03.63-.74-.38-.98-1.33-.62-2.04.37-.71,1.28-1,2.02-.63Z"/>
      <path class="p" d="M129.21,40.07c.82.11,1.35.91,1.18,1.8-.17.89-1.07,1.37-1.84,1.14-.81-.24-1.23-1.03-1.09-1.78.14-.75.93-1.27,1.75-1.16Z"/>
      <path class="p" d="M128.24,31.16c.76-.28,1.69.16,1.91,1.04.22.88-.27,1.72-1.09,1.86-.82.15-1.63-.33-1.8-1.07-.18-.74.19-1.55.98-1.83Z"/>
      <path class="p" d="M124.01,23.19c.68-.47,1.65-.29,2.1.45.46.73.25,1.67-.46,2.09-.71.42-1.64.21-2.06-.47-.41-.69-.26-1.6.43-2.07Z"/>
      <path class="p" d="M118.48,16.03c.63-.54,1.59-.45,2.12.21.53.66.44,1.61-.2,2.12s-1.59.42-2.11-.22c-.51-.64-.43-1.58.2-2.12Z"/>
      <path class="p" d="M112.36,10.05c-.09-.2-.15-.42-.18-.64-.02-.11-.01-.22,0-.32,0-.05.02-.1.04-.15v-.02s.01,0,.01,0h0s0,0,0,0h0s.03.09-.03-.09h0s.02-.03.02-.03l.04-.06c.08-.14.2-.27.36-.33.17-.03.4-.02.67.08.55.27,1.1,1.1,1.3,1.67.22.61.13,1.06-.13,1.38-.26.33-.58.53-.75.75-.18.21-.18.44-.18.44,0,0-.03-.28-.28-.87-.26-.57-.56-1.06-.9-1.81Z"/>
      <path class="p" d="M111.79,19.07c-.83-.03-1.49-.72-1.47-1.54.01-.81.71-1.53,1.54-1.48.83.05,1.47.68,1.46,1.54-.02.85-.7,1.51-1.53,1.48Z"/>
      <path class="p" d="M109.85,27.84c-.72-.37-1.07-1.22-.8-1.92.3-.69,1.06-1.12,1.88-.89.78.21,1.28,1.12.92,1.97-.33.86-1.24,1.23-2,.85Z"/>
      <path class="p" d="M104.4,35.01c-.58-.59-.6-1.53-.04-2.1.54-.58,1.46-.64,2.1-.1.63.53.68,1.52.09,2.15-.6.62-1.57.64-2.15.05Z"/>
      <path class="p" d="M97.65,41.04c-.53-.64-.44-1.59.19-2.12.63-.53,1.58-.45,2.12.17.54.63.46,1.58-.19,2.12-.65.54-1.6.46-2.12-.18Z"/>
      <path class="p" d="M90.59,46.71c-.53-.63-.41-1.61.25-2.13.65-.52,1.6-.41,2.11.24.51.65.4,1.6-.26,2.11-.65.52-1.57.41-2.1-.23Z"/>
      <path class="p" d="M84.27,53.15c-.69-.49-.79-1.45-.24-2.15.57-.68,1.54-.75,2.15-.19.61.57.67,1.49.17,2.09-.48.61-1.42.71-2.08.24Z"/>
      <path class="p" d="M80.71,61.39c-.81-.14-1.36-.97-1.13-1.85.22-.88,1.1-1.35,1.89-1.07.78.28,1.2,1.08,1.02,1.82-.2.73-.95,1.24-1.78,1.1Z"/>
      <path class="p" d="M80.6,70.41c-.82.1-1.58-.51-1.65-1.38-.07-.87.58-1.6,1.4-1.63.83-.03,1.52.59,1.59,1.39.06.79-.52,1.52-1.35,1.62Z"/>
      <path class="p" d="M82.83,79.15c-.77.29-1.64-.09-1.94-.89-.31-.85.13-1.72.93-1.95.79-.24,1.62.19,1.88.91.29.76-.09,1.64-.87,1.93Z"/>
      <path class="p" d="M80.77,85.01c.24-.79,1.08-1.23,1.35-1.27.01-.01.02,0,.04.01.02.02.03.07.16.05.2,0,.38.05.5.15.16.08.27.21.41.34.14.13.3.27.43.44.13.16.21.34.21.54,0,.2-.08.43-.17.61-.12.2-.25.37-.39.5-.04.06-.21.14-.39.21-.17.06-.36.11-.55.14-.32,0-.63-.04-.89-.14-.22-.12-.41-.26-.54-.43-.27-.33-.3-.76-.19-1.15Z"/>
      <path class="p" d="M73.44,79.85c.63-.55,1.53-.53,2.09,0,.55.53.61,1.45.09,2.09-.52.64-1.51.7-2.16.08-.66-.61-.64-1.63-.02-2.16Z"/>
      <path class="p" d="M70.26,71.58c.83-.09,1.55.49,1.68,1.26.12.77-.41,1.53-1.21,1.72-.82.19-1.62-.38-1.76-1.25-.14-.87.47-1.64,1.28-1.73Z"/>
      <path class="p" d="M70.09,62.54c.83.05,1.46.75,1.42,1.56-.02.81-.7,1.46-1.53,1.46-.83,0-1.49-.7-1.47-1.56.04-.86.75-1.51,1.58-1.45Z"/>
      <path class="p" d="M71.46,53.61c.78.23,1.28,1.04,1.09,1.79-.17.77-.94,1.29-1.76,1.15-.81-.14-1.35-.95-1.16-1.81.21-.86,1.03-1.37,1.83-1.13Z"/>
      <path class="p" d="M71.17,48.14c.04-.55.26-1.21.67-1.77.41-.58.95-.92,1.31-.85.2.01.29.17.44.31.05.02.05.12.14.09.03.05.06.1.07.15.03.1.03.22.01.33-.07.47-.38,1-.72,1.4-.59.68-1.1,1.18-1.5,1.64-.4.44-.65.88-.63.86,0,0,.13-.33.16-.72.04-.4,0-.86.04-1.46Z"/>
      <path class="p" d="M64.66,54.43c-.6-.57-.61-1.53-.02-2.13.59-.6,1.55-.61,2.13-.03.59.59.59,1.53.01,2.12-.58.59-1.53.61-2.12.03Z"/>
      <path class="p" d="M58.52,61.07c-.62-.55-.67-1.5-.11-2.13.56-.62,1.52-.67,2.13-.11.61.56.65,1.51.1,2.12-.55.61-1.5.67-2.12.12Z"/>
      <path class="p" d="M52.68,67.99c-.66-.51-.76-1.46-.23-2.12.53-.66,1.49-.76,2.12-.23.64.53.73,1.47.21,2.11-.51.64-1.45.75-2.1.24Z"/>
      <path class="p" d="M48.04,75.74c-.74-.36-1.04-1.28-.66-2.03.39-.76,1.3-1.05,2.03-.66.73.39,1.01,1.29.64,2.02-.37.73-1.27,1.03-2.01.67Z"/>
      <path class="p" d="M44.39,84.02c-.77-.32-1.14-1.18-.83-1.95.31-.79,1.2-1.17,1.96-.85.76.33,1.12,1.19.83,1.95-.3.77-1.19,1.17-1.96.85Z"/>
      <path class="p" d="M40.54,92.2c-.75-.35-1.08-1.27-.59-2.11.04-.05.07-.1.1-.15l.07-.1h0c.11-.09.45-.34.78-.4.34-.08.72-.06,1.07.11.35.17.6.46.72.81.1.36.14.73-.19,1.26l.07-.1s-.04.07-.06.11c-.36.6-1.24.92-1.99.57Z"/>
      <path class="p" d="M34.59,92.82c.65-.5,1.53-.5,2.07.02.55.53.57,1.4.1,2.07-.48.68-1.53.72-2.18.09-.66-.63-.65-1.68.01-2.18Z"/>
      <path class="p" d="M30.47,84.82c.79-.24,1.63.16,1.9.9.27.73-.08,1.59-.84,1.93-.75.34-1.66-.04-1.97-.87-.31-.83.11-1.71.91-1.95Z"/>
      <path class="p" d="M20.77,84.58c-.65-.52-.74-1.48-.18-2.13.56-.65,1.53-.71,2.13-.15.61.56.67,1.49.15,2.1-.52.61-1.46.7-2.1.18Z"/>
      <path class="p" d="M15.6,91.95c-.71-.41-.95-1.36-.49-2.08.46-.72,1.4-.92,2.09-.46.69.46.88,1.38.45,2.06-.43.68-1.33.9-2.05.48Z"/>
      <path class="p" d="M11.83,100.12c-.8-.23-1.23-1.13-.91-1.96.32-.83,1.22-1.19,1.98-.85.76.34,1.1,1.21.82,1.93-.28.71-1.1,1.1-1.89.88Z"/>
      <path class="p" d="M11.02,109.05c-.83,0-1.51-.66-1.51-1.5,0-.84.69-1.52,1.51-1.5.83.02,1.48.69,1.49,1.5,0,.81-.66,1.49-1.49,1.5Z"/>
      <path class="p" d="M11.62,118.03c-.82.11-1.58-.48-1.68-1.32-.09-.85.51-1.59,1.34-1.66.82-.07,1.55.52,1.64,1.33.09.8-.49,1.54-1.31,1.66Z"/>
      <path class="p" d="M13.58,126.81c-.79.23-1.63-.22-1.86-1.02-.24-.79.22-1.64,1.02-1.86.79-.22,1.62.22,1.86,1.02.23.79-.22,1.63-1.02,1.86Z"/>
      <path class="p" d="M15.89,135.52c-.82.16-1.6-.34-1.79-1.12-.18-.78.29-1.59,1.1-1.8.8-.21,1.63.28,1.82,1.11.2.83-.32,1.66-1.13,1.81Z"/>
      <path class="p" d="M13.47,143.46c-.15-.39-.15-.79-.12-1.11.03-.33.09-.58.27-.76.34-.34,1.18-.54,1.93-.19.74.33,1.04,1.4.23,2.27-.4.42-.96.6-1.4.54-.45-.07-.76-.36-.91-.74Z"/>
      <path class="p" d="M7.11,138.8c.78-.28,1.62.03,1.96.73.33.7.05,1.54-.66,1.98-.7.43-1.67.11-2.05-.69-.38-.8-.03-1.73.75-2.02Z"/>
      <path class="p" d="M4.71,130.13c.31-.65.63-1.06.93-.93.31.09.54.79.71,1.6.08.47.1.71.08.97-.01.13-.03.26-.06.36-.03.09-.08.17-.13.25-.2.32-.53.57-.93.67-.4.1-.81.03-1.14-.18-.08-.05-.16-.11-.23-.18-.07-.05-.12-.09-.17-.13-.1-.09-.17-.23-.16-.18,0,0,.15-.12.34-.54.2-.4.45-1.1.75-1.73Z"/>
      <path class="p" d="M2.28,130.9c-.36-.39-.67-.98-.81-1.74-.07-.38-.11-.79-.1-1.22.01-.4.07-.77.16-1.09.09-.31.22-.44.34-.53.12-.07.26.02.37.13.23.26.41.78.54,1.48.2,1.15.38,2.21.56,3.28.15.82.27,1.18.27,1.18,0,0-.13-.3-.37-.57-.24-.28-.59-.52-.96-.93Z"/>
      <path class="p" d="M1.6,139.88c-.83-.03-1.48-.74-1.43-1.58.04-.84.76-1.47,1.58-1.42.83.05,1.46.76,1.41,1.58-.05.82-.74,1.46-1.57,1.42Z"/>
      <path class="p" d="M1.56,148.89c-.82.05-1.54-.6-1.56-1.46-.03-.85.65-1.54,1.47-1.55.83,0,1.5.65,1.53,1.46.02.81-.61,1.49-1.44,1.54Z"/>
      <path class="p" d="M2.83,157.8c-.81.18-1.61-.35-1.77-1.18-.16-.83.38-1.63,1.2-1.76.82-.14,1.59.39,1.75,1.19.16.8-.36,1.59-1.17,1.76Z"/>
      <path class="p" d="M5.1,166.51c-.79.25-1.63-.2-1.88-1.01-.26-.81.21-1.65,1.02-1.86.79-.22,1.61.25,1.86,1.02.24.78-.21,1.61-1,1.86Z"/>
      <path class="p" d="M8.22,174.96c-.76.33-1.64-.04-1.96-.82-.32-.78.04-1.66.81-1.96.77-.3,1.65.07,1.96.82.31.75-.05,1.63-.81,1.96Z"/>
      <path class="p" d="M12.18,183.05c-.72.41-1.63.13-2.03-.62-.4-.75-.12-1.66.62-2.04.74-.38,1.64-.1,2.03.62.38.72.1,1.63-.62,2.04Z"/>
      <path class="p" d="M16.98,190.67c-.68.48-1.64.32-2.09-.4-.46-.71-.28-1.65.42-2.1.7-.45,1.62-.26,2.07.41.44.69.28,1.6-.39,2.08Z"/>
      <path class="p" d="M22.52,197.77c-.62.54-1.59.47-2.14-.17-.53-.66-.43-1.62.21-2.13.65-.52,1.58-.42,2.09.21.53.62.46,1.55-.16,2.09Z"/>
      <path class="p" d="M28.75,204.28c-.57.6-1.53.62-2.14.04-.62-.57-.59-1.56,0-2.14.6-.59,1.51-.56,2.11,0,.59.56.61,1.5.04,2.1Z"/>
      <path class="p" d="M35.58,210.14c-.51.66-1.46.76-2.12.24-.67-.52-.77-1.47-.23-2.11.53-.63,1.46-.72,2.11-.23.64.5.75,1.44.24,2.1Z"/>
      <path class="p" d="M42.84,215.48c-.51.66-1.44.78-2.09.3-.65-.48-.8-1.4-.33-2.08.46-.68,1.42-.84,2.11-.33.69.5.82,1.46.31,2.11Z"/>
      <path class="p" d="M49.55,221.48c-.59.58-1.53.57-2.11,0-.58-.56-.6-1.51-.03-2.11.56-.61,1.52-.63,2.13-.03.61.6.61,1.56,0,2.13Z"/>
      <path class="p" d="M55.45,228.28c-.63.53-1.58.45-2.12-.2-.54-.66-.43-1.59.21-2.12.64-.53,1.6-.41,2.11.21.52.63.44,1.57-.2,2.11Z"/>
      <path class="p" d="M61.39,235.06c-.61.56-1.56.51-2.12-.11-.56-.62-.5-1.57.12-2.12.62-.55,1.57-.49,2.12.12.55.61.5,1.56-.11,2.12Z"/>
      <path class="p" d="M67.61,241.57c-.62.55-1.54.53-2.1-.04-.56-.57-.57-1.52.01-2.11.58-.59,1.54-.6,2.13.01.6.61.58,1.59-.04,2.14Z"/>
      <path class="p" d="M70.55,249.76c-.83.11-1.58-.56-1.6-1.45-.02-.92.65-1.46,1.46-1.55.84-.09,1.53.72,1.54,1.45.02.77-.58,1.43-1.39,1.55Z"/>
      <path class="p" d="M76.22,256.01c-.28.78-1.24,1.14-2.03.73-.8-.38-1.11-1.36-.66-2.06.45-.69,1.29-.97,1.98-.63.69.35.98,1.18.71,1.96Z"/>
      <path class="p" d="M84.37,253.97c.59.58.53,1.59-.21,2.17-.75.59-1.79.4-2.17-.34-.38-.74-.24-1.58.32-2.02.57-.45,1.47-.39,2.06.19Z"/>
      <path class="p" d="M87.14,245.85c.78-.24,1.67.37,1.73,1.41.04,1.04-.78,1.74-1.59,1.57-.81-.17-1.38-.81-1.41-1.42-.03-.62.47-1.31,1.27-1.55Z"/>
      <path class="p" d="M81.22,239.64c.13-.81,1.04-1.36,2.06-.91.49.23.82.64.91,1.05.11.41-.02.82-.28,1.13-.56.61-1.39.77-1.88.55-.5-.23-.94-.99-.8-1.81Z"/>
      <path class="p" d="M72.34,238.54c.19-.37.5-.61.81-.79.31-.16.61-.24.92-.16.61.14,1.22.83,1.16,1.66-.05.82-.8,1.48-1.81,1.27-.5-.12-.91-.43-1.1-.81-.2-.37-.17-.81.02-1.17Z"/>
      <path class="p" d="M65.87,232.33c.62-.55,1.56-.5,2.11.11.55.61.51,1.55-.1,2.12-.61.56-1.56.52-2.12-.1-.56-.61-.51-1.57.11-2.13Z"/>
      <path class="p" d="M60.04,225.46c.65-.52,1.58-.41,2.11.22.52.63.43,1.58-.21,2.11-.64.53-1.58.44-2.12-.21-.54-.64-.43-1.6.22-2.12Z"/>
      <path class="p" d="M54.65,218.24c.68-.47,1.6-.31,2.08.36.48.66.33,1.6-.34,2.09-.67.49-1.61.34-2.1-.34-.49-.68-.32-1.63.36-2.1Z"/>
      <path class="p" d="M49.79,210.66c.72-.42,1.63-.18,2.05.52.41.7.21,1.61-.5,2.05-.7.44-1.65.22-2.07-.5-.43-.73-.2-1.65.52-2.07Z"/>
      <path class="p" d="M45.61,202.68c.76-.35,1.62-.02,1.99.7.36.73.05,1.63-.69,2-.74.38-1.64.06-2.01-.69-.38-.75-.04-1.67.71-2.01Z"/>
      <path class="p" d="M42.29,194.31c.79-.26,1.62.17,1.9.92.26.76-.13,1.61-.9,1.91-.78.3-1.65-.1-1.93-.91-.3-.8.15-1.67.93-1.92Z"/>
      <path class="p" d="M39.81,185.65c.8-.21,1.62.27,1.83,1.07.21.79-.27,1.62-1.06,1.84-.8.22-1.62-.26-1.84-1.07-.21-.81.26-1.63,1.07-1.84Z"/>
      <path class="p" d="M37.69,176.89c.81-.18,1.61.32,1.8,1.12.19.8-.32,1.61-1.12,1.8-.81.19-1.61-.31-1.8-1.12-.19-.81.31-1.62,1.12-1.8Z"/>
      <path class="p" d="M35.8,168.08c.81-.17,1.6.36,1.77,1.17.16.81-.35,1.6-1.16,1.78-.81.17-1.61-.35-1.78-1.16-.17-.82.35-1.61,1.17-1.78Z"/>
      <path class="p" d="M34.07,159.24c.81-.15,1.6.39,1.75,1.2.15.81-.38,1.6-1.2,1.75-.81.16-1.6-.38-1.75-1.2-.16-.82.38-1.6,1.2-1.75Z"/>
      <path class="p" d="M32.54,150.36c.82-.13,1.59.42,1.72,1.24.13.81-.41,1.59-1.23,1.73-.82.14-1.6-.41-1.73-1.24-.13-.82.42-1.6,1.24-1.73Z"/>
      <path class="p" d="M31.15,141.46c.82-.13,1.59.43,1.71,1.25.13.82-.43,1.59-1.25,1.71-.82.13-1.59-.43-1.71-1.25-.13-.82.43-1.59,1.25-1.71Z"/>
      <path class="p" d="M35.21,126.98c.81.13,1.35,1.03,1,1.93-.34.89-1.3,1.22-2.01.8-.72-.42-1.04-1.24-.8-1.86.24-.61.98-1.01,1.8-.88Z"/>
      <path class="p" d="M32.1,119.29c.5-.68,1.5-.74,2.18-.07.31.36.47.79.44,1.19-.05.41-.27.77-.61.99s-.74.31-1.09.28c-.36-.02-.69-.13-.91-.39-.47-.46-.49-1.35-.01-2.01Z"/>
      <path class="p" d="M24.89,114.59c.4-.14.8-.08,1.11-.05.16,0,.26,0,.33-.05.03-.08.14-.03.27.07.5.37.75,1.26.34,1.99-.4.71-1.33,1-2.13.42-.19-.15-.38-.34-.58-.68-.16-.3-.17-.62-.15-.84.09-.45.43-.72.81-.85Z"/>
      <path class="p" d="M24.89,105.87c.81.2,1.33.9,1.24,1.64-.09.74-.8,1.31-1.63,1.26-.83-.05-1.46-.78-1.35-1.65.11-.87.93-1.45,1.73-1.25Z"/>
      <path class="p" d="M31.93,101.64c.21.8-.24,1.61-.99,1.83-.75.22-1.56-.22-1.82-1.01-.26-.79.18-1.64.98-1.87.8-.24,1.62.24,1.83,1.05Z"/>
      <path class="p" d="M46.11,105.73c-.07.4-.33.77-.7.93-.36.16-.89.22-1.32,0-.94-.4-1.14-1.43-.69-2.09.48-.7,1.32-.88,1.9-.65.29.17.51.36.65.7.14.34.22.71.15,1.12Z"/>
      <path class="p" d="M53.87,102.13c.6.59.57,1.55-.09,2.14-.68.59-1.67.48-2.14-.19-.48-.68-.4-1.58.16-2.06.56-.51,1.49-.46,2.07.11Z"/>
      <path class="p" d="M60.79,96.92c.25.79-.16,1.63-.9,1.89-.74.26-1.54-.12-1.89-.87-.35-.75.07-1.66.88-1.95.8-.28,1.66.14,1.91.94Z"/>
      <path class="p" d="M69.33,94.41c.22.8-.24,1.62-1.03,1.84-.79.22-1.61-.25-1.83-1.04-.23-.8.23-1.63,1.03-1.85.79-.22,1.62.25,1.83,1.05Z"/>
      <path class="p" d="M77.95,92.12c.21.8-.27,1.62-1.06,1.82-.79.2-1.6-.28-1.81-1.08-.21-.8.26-1.62,1.06-1.83.8-.21,1.61.28,1.81,1.08Z"/>
      <ellipse class="p" cx="85.14" cy="90.32" rx="1.49" ry="1.5" transform="translate(-18.92 22.66) rotate(-13.66)"/>
      <path class="p" d="M95.25,87.86c.2.8-.29,1.61-1.09,1.81-.8.19-1.6-.3-1.8-1.11-.2-.8.29-1.61,1.09-1.81.8-.19,1.6.3,1.8,1.11Z"/>
      <path class="p" d="M103.91,85.76c.2.8-.29,1.61-1.09,1.81-.8.19-1.6-.3-1.8-1.11-.2-.8.29-1.61,1.09-1.81.8-.19,1.6.3,1.8,1.11Z"/>
      <ellipse class="p" cx="111.14" cy="85.22" rx="1.5" ry="1.49" transform="translate(3.74 175.09) rotate(-77.4)"/>
      <path class="p" d="M121.28,87.48c-.19.81-.98,1.31-1.78,1.13-.8-.18-1.3-.98-1.12-1.79.18-.81.98-1.32,1.78-1.14.8.18,1.3.98,1.12,1.79Z"/>
      <path class="p" d="M129.9,89.71c-.27.78-1.08,1.22-1.83,1-.77-.21-1.22-1.03-1.02-1.83.21-.81,1.03-1.28,1.85-1.05.82.24,1.28,1.1,1,1.89Z"/>
      <path class="p" d="M135.64,96.03c-.28.3-.68.48-1.08.43-.39-.05-.83-.27-1.12-.66-.27-.41-.36-.89-.28-1.27.11-.4.39-.72.76-.89.38-.17.78-.18,1.11-.1.37.07.67.23.84.51.2.26.27.58.22.95-.05.36-.17.72-.46,1.03Z"/>
      <path class="p" d="M143.95,97.94c.11.39.05.82-.18,1.15-.23.32-.64.56-1.11.64-.48.03-.92-.12-1.22-.38-.3-.28-.45-.68-.43-1.08.02-.42.2-.77.44-1.04.24-.28.54-.47.88-.48.33-.06.66.05.96.28.29.21.54.51.66.91Z"/>
      <path class="p" d="M151.05,92.88c.05.41-.06.8-.11,1.1-.06.32-.05.48-.24.64-.38.34-1.35.49-1.98-.05-.62-.52-.8-1.46.03-2.23.43-.39,1.12-.55,1.57-.4.46.15.69.51.74.93Z"/>
      <path class="p" d="M159.76,94.62c-.21.8-1.01,1.29-1.8,1.1-.79-.2-1.28-1-1.08-1.81.19-.8,1-1.31,1.8-1.1.8.2,1.29,1.01,1.08,1.82Z"/>
      <path class="p" d="M167.41,98.53c-.38.14-.8.13-1.12.08-.33-.06-.57-.1-.72-.26-.29-.3-.53-1.16-.16-1.9.19-.36.51-.65.93-.7.41-.08.92.06,1.35.47.43.42.6,1.01.5,1.43-.09.44-.38.73-.77.88Z"/>
      <path class="p" d="M171.57,106.1c-.41.7-1.48.87-2.2.16-.71-.71-.63-1.74.07-2.2.68-.45,1.56-.4,2.01.04.45.45.55,1.28.12,2Z"/>
      <path class="p" d="M180.09,106.31c.38.76-.03,1.66-.93,1.98-.45.12-.91.08-1.25-.12-.35-.22-.58-.56-.65-.97-.06-.41.03-.8.21-1.1.18-.33.44-.58.78-.66.65-.23,1.47.16,1.83.88Z"/>
      <path class="p" d="M188.41,104.92c-.59.58-1.06,1.05-1.74.87-.44-.12-1.02-.76-1.09-1.58-.08-.82.7-1.6,1.86-1.32.45.12.86.44,1.08.85.23.43.16.86-.11,1.18Z"/>
      <path class="p" d="M189.39,113.59c-.82-.03-1.49-.7-1.47-1.5.02-.8.67-1.47,1.51-1.47.82,0,1.51.65,1.49,1.5-.01.84-.69,1.5-1.53,1.47Z"/>
      <path class="p" d="M188.79,122.48c-.82-.08-1.44-.79-1.36-1.61.08-.81.78-1.42,1.61-1.35.82.06,1.45.78,1.38,1.61-.07.82-.8,1.43-1.62,1.35Z"/>
      <path class="p" d="M187.86,131.35c-.82-.1-1.41-.83-1.32-1.64.1-.81.83-1.4,1.65-1.31.82.09,1.42.83,1.33,1.64-.09.82-.84,1.4-1.66,1.31Z"/>
      <path class="p" d="M186.74,140.18c-.82-.11-1.39-.86-1.29-1.67.11-.81.86-1.38,1.68-1.27.82.11,1.4.85,1.3,1.67-.11.82-.87,1.39-1.69,1.27Z"/>
      <path class="p" d="M185.46,149c-.82-.13-1.38-.89-1.26-1.69.12-.81.89-1.36,1.71-1.24.82.12,1.38.88,1.26,1.69-.12.81-.89,1.37-1.71,1.24Z"/>
      <path class="p" d="M183.99,157.79c-.82-.15-1.36-.92-1.22-1.72.14-.8.91-1.34,1.73-1.21.82.14,1.37.91,1.23,1.72-.14.81-.92,1.35-1.74,1.2Z"/>
      <path class="p" d="M182.39,166.56c-.81-.15-1.35-.93-1.2-1.73.15-.8.93-1.34,1.74-1.19.81.15,1.36.92,1.21,1.73-.15.81-.93,1.34-1.75,1.19Z"/>
      <path class="p" d="M179.94,175.06c-.32-.28-.51-.62-.63-.92-.13-.33-.16-.6-.03-.93.24-.62,1.06-1.06,1.86-.84.8.22,1.28,1.07.92,1.97-.16.44-.56.81-.96.95-.42.14-.85.05-1.15-.22Z"/>
      <path class="p" d="M173.31,180.57c-.77-.31-1.1-1.3-.55-2.12.54-.83,1.6-.94,2.17-.35.58.6.69,1.44.34,1.99-.36.54-1.19.8-1.96.49Z"/>
      <path class="p" d="M174.5,188.78c-.63.53-1.62.41-2.13-.35-.52-.76-.26-1.77.49-2.11.76-.35,1.59-.15,2,.44.4.6.28,1.5-.36,2.03Z"/>
      <path class="p" d="M175.83,202.52c-.76-.32-1.13-1.17-.83-1.9.3-.73,1.17-1.06,1.93-.74.76.32,1.14,1.17.84,1.9-.31.73-1.17,1.06-1.94.74Z"/>
      <path class="p" d="M163.26,209.45c-.44-.7-.12-1.7.79-2.05.9-.36,1.82.15,1.97.94.17.83-.24,1.59-.87,1.85-.64.24-1.46-.03-1.89-.74Z"/>
      <path class="p" d="M158.74,216.7c-.41,0-.79-.17-1.06-.49-.27-.32-.34-.8-.27-1.29.23-.99,1.15-1.47,1.92-1.12.73.34,1.17,1.11,1.02,1.72-.03.32-.28.58-.55.8-.27.21-.64.37-1.06.38Z"/>
      <path class="p" d="M158.38,225.1c-.67-.5-.82-1.4-.5-1.98.19-.3.41-.47.77-.59.31-.1.72-.16,1.12-.06.4.1.72.37.88.78.13.37.11.92-.14,1.32-.48.86-1.46,1.02-2.12.53Z"/>
      <path class="p" d="M152.35,231.72c-.59-.59-.6-1.53-.02-2.11.57-.58,1.51-.59,2.11-.02.6.57.61,1.53.03,2.12-.58.59-1.53.59-2.12,0Z"/>
      <path class="p" d="M145.93,237.96c-.56-.61-.53-1.55.06-2.11.6-.56,1.53-.54,2.11.06.57.59.56,1.55-.05,2.12-.61.57-1.56.54-2.12-.07Z"/>
      <path class="p" d="M139.2,243.86c-.53-.64-.45-1.58.17-2.11.63-.52,1.56-.46,2.1.17.54.62.48,1.58-.16,2.11-.64.54-1.58.46-2.11-.18Z"/>
      <path class="p" d="M132.19,249.43c-.5-.66-.38-1.6.27-2.09.65-.49,1.58-.38,2.09.28.51.65.4,1.6-.27,2.1-.66.5-1.6.38-2.1-.28Z"/>
      <path class="p" d="M124.92,254.65c-.47-.68-.3-1.62.37-2.08.67-.46,1.6-.3,2.08.37.48.67.32,1.62-.36,2.09-.68.47-1.62.3-2.08-.38Z"/>
      <path class="p" d="M117.36,259.45c-.36-.75-.13-1.61.55-2.01.68-.4,1.59-.19,2.03.51.44.7.23,1.63-.51,2.07-.74.44-1.71.18-2.07-.57Z"/>
      <path class="p" d="M108.75,258.75c.03-.83.8-1.47,1.7-1.33.9.13,1.45.96,1.25,1.76-.21.8-.95,1.31-1.68,1.2-.73-.11-1.3-.81-1.27-1.64Z"/>
      <path class="p" d="M101.43,262.88c-.76-.35-1.02-1.35-.42-2.17.62-.81,1.68-.84,2.21-.2.53.64.58,1.49.2,2-.38.52-1.23.72-1.98.37Z"/>
      <path class="p" d="M101.52,271.5c-.71.42-1.71.05-2.02-.89-.32-.94.25-1.82,1.07-1.92.82-.11,1.56.35,1.78.97.2.63-.12,1.42-.83,1.84Z"/>
      <path class="p" d="M109.02,275.42c.02.41-.13.8-.43,1.09-.3.27-.74.41-1.22.38-.47-.08-.88-.31-1.11-.63-.23-.34-.3-.75-.19-1.15s.37-.72.66-.92c.3-.22.63-.34.97-.28.34.01.64.2.89.48.24.26.42.62.44,1.04Z"/>
      <path class="p" d="M116.42,271.06c.72.38.93,1.44.27,2.19-.65.75-1.69.72-2.2.06-.5-.65-.49-1.52-.07-2.02.44-.48,1.26-.63,2.01-.23Z"/>
      <path class="p" d="M121.14,263.96c.48.68.34,1.6-.28,2.08-.62.48-1.52.37-2.07-.24-.56-.62-.45-1.6.24-2.13.69-.53,1.64-.38,2.12.3Z"/>
      <path class="p" d="M128.56,258.94c.48.67.33,1.62-.36,2.09-.69.47-1.62.3-2.09-.38-.46-.69-.3-1.62.37-2.08.67-.46,1.59-.31,2.08.37Z"/>
      <path class="p" d="M135.72,253.57c.51.65.4,1.59-.26,2.11-.66.51-1.6.38-2.1-.28-.5-.66-.38-1.59.27-2.09.64-.5,1.58-.38,2.09.27Z"/>
      <path class="p" d="M142.66,247.91c.54.63.46,1.58-.18,2.11-.63.54-1.59.44-2.11-.2-.53-.64-.44-1.57.18-2.1.62-.53,1.57-.44,2.1.19Z"/>
      <path class="p" d="M149.37,241.98c.56.61.52,1.56-.09,2.12-.61.56-1.56.51-2.12-.11-.55-.62-.5-1.56.1-2.11.6-.55,1.55-.5,2.11.1Z"/>
      <path class="p" d="M155.78,235.73c.6.57.62,1.53.03,2.12-.59.59-1.54.59-2.12,0-.58-.59-.59-1.54-.02-2.11.58-.57,1.51-.59,2.11-.01Z"/>
      <path class="p" d="M162.05,229.34c.56.61.55,1.54-.03,2.1-.57.57-1.52.56-2.11-.02-.59-.58-.59-1.53,0-2.13.61-.59,1.56-.57,2.13.04Z"/>
      <path class="p" d="M169.74,225.07c.11.4.05.82-.17,1.14-.19.32-.67.59-.94.66-.64.15-1.41-.25-1.76-1-.35-.76.11-1.69,1.08-1.92.53-.12.78,0,1.12.2.31.22.56.52.67.92Z"/>
      <path class="p" d="M175.92,219.16c.8.19,1.26,1.14.83,2.05-.45.9-1.49,1.13-2.13.62-.65-.52-.86-1.35-.57-1.93.27-.58,1.06-.93,1.87-.74Z"/>
      <path class="p" d="M177.39,210.66c.61.57.64,1.48.39,1.94-.13.24-.36.35-.67.47-.32.11-.69.23-1.11.17-.4-.05-.78-.27-.95-.69-.19-.41-.14-.99.13-1.47.59-.97,1.61-.98,2.2-.42Z"/>
      <path class="p" d="M183.99,204.6c.57.59.57,1.57-.07,2.13-.63.57-1.58.52-2.12-.1-.55-.62-.51-1.56.09-2.1.6-.53,1.52-.52,2.1.08Z"/>
      <path class="p" d="M190.11,198.07c.64.54.71,1.49.15,2.11-.56.63-1.5.69-2.12.13s-.68-1.5-.14-2.11c.54-.6,1.48-.67,2.11-.14Z"/>
      <path class="p" d="M195.56,190.98c.68.47.84,1.41.35,2.09-.49.68-1.42.83-2.09.33-.66-.49-.82-1.43-.35-2.09.47-.66,1.41-.81,2.09-.34Z"/>
      <path class="p" d="M200.35,183.41c.72.41.96,1.33.54,2.06-.41.73-1.36.94-2.06.51-.71-.44-.92-1.34-.52-2.04.41-.7,1.32-.94,2.04-.53Z"/>
      <path class="p" d="M204.45,175.46c.75.34,1.09,1.24.73,2-.37.75-1.28,1.06-2.02.69-.74-.37-1.05-1.26-.69-1.98.35-.73,1.22-1.05,1.98-.71Z"/>
      <path class="p" d="M207.81,167.16c.78.27,1.21,1.14.9,1.92-.3.79-1.16,1.18-1.93.88-.77-.3-1.17-1.16-.88-1.91.29-.75,1.13-1.15,1.91-.89Z"/>
      <path class="p" d="M210.14,158.53c.81.13,1.37.93,1.19,1.77-.18.84-1,1.35-1.8,1.15-.8-.2-1.3-.99-1.14-1.76.17-.77.93-1.29,1.75-1.16Z"/>
      <path class="p" d="M210.86,149.61c.83.02,1.49.71,1.45,1.55-.03.84-.73,1.48-1.56,1.44-.82-.05-1.46-.73-1.43-1.55.03-.81.71-1.46,1.54-1.44Z"/>
      <path class="p" d="M210.92,140.66c.83,0,1.51.66,1.51,1.49,0,.83-.67,1.5-1.5,1.5-.83,0-1.5-.67-1.5-1.49,0-.82.66-1.49,1.49-1.5Z"/>
      <path class="p" d="M210.65,131.71c.39-.29.77-.27,1.06.02.14.14.27.36.36.62.05.13.08.28.11.44.03.15.04.21.05.33.04.84-.61,1.54-1.44,1.56-.83.03-1.52-.61-1.56-1.42,0-.09,0-.23.02-.27.02-.04.05-.08.08-.12.07-.09.18-.19.3-.32.26-.24.61-.56,1.01-.85Z"/>
      <path class="p" d="M208.24,130.03c-.25-.66-.41-1.44-.42-2.3,0-.44.04-.77.11-1.12.04-.17.08-.33.13-.47.05-.11.11-.2.17-.27.13-.16.25-.18.36-.14.11.03.21.15.29.28.16.28.25.65.26,1.17,0,1.41,0,2.7,0,4,.01,1,.07,1.49.07,1.49,0,0-.07-.43-.25-.9-.17-.49-.44-1.03-.71-1.75Z"/>
      <path class="p" d="M206.01,138.69c-.78-.28-1.2-1.11-.96-1.86.24-.76,1.05-1.2,1.85-.99.8.22,1.27,1.06,1.01,1.88-.26.82-1.12,1.26-1.9.97Z"/>
      <path class="p" d="M199.63,143.4c.18-.38.47-.66.71-.86.26-.21.46-.34.68-.36.22-.01.47.11.74.3.27.18.58.47.75.84.18.37.17.78-.06,1.16-.23.37-.71.67-1.32.7-.6.03-1.14-.25-1.41-.61-.27-.38-.28-.8-.1-1.17Z"/>
      <path class="p" d="M196.81,135.5c.81.17,1.33.93,1.28,1.59-.06.63-.63,1.2-1.45,1.38-.41.07-.8-.05-1.11-.35-.29-.29-.48-.77-.43-1.25.08-.99.91-1.54,1.71-1.36Z"/>
      <path class="p" d="M199.35,126.92c.79.24,1.23,1.1.97,1.88-.25.78-1.09,1.21-1.88.96-.79-.25-1.23-1.09-.97-1.88.26-.79,1.09-1.21,1.88-.96Z"/>
      <path class="p" d="M201.41,118.21c.82.11,1.4.89,1.25,1.73-.14.85-.95,1.38-1.76,1.21-.81-.18-1.33-.94-1.2-1.72.14-.78.88-1.33,1.71-1.22Z"/>
      <path class="p" d="M201.92,109.28c.82,0,1.51.67,1.49,1.51-.01.85-.71,1.5-1.54,1.47-.83-.03-1.47-.71-1.46-1.51.02-.8.67-1.47,1.51-1.47Z"/>
      <path class="p" d="M201.12,100.39c.8-.23,1.64.29,1.81,1.18.17.89-.44,1.67-1.25,1.75-.83.09-1.56-.47-1.7-1.2-.14-.73.34-1.5,1.14-1.73Z"/>
      <path class="p" d="M197.47,92.24c.71-.43,1.64-.18,2.06.58.42.77.11,1.7-.64,2.05-.75.35-1.63.07-1.99-.61-.38-.68-.13-1.58.58-2.01Z"/>
      <path class="p" d="M192.37,84.88c.65-.51,1.6-.38,2.1.29.5.67.36,1.62-.32,2.1-.67.48-1.6.34-2.09-.3-.48-.65-.36-1.58.3-2.09Z"/>
      <path class="p" d="M186.47,78.16c.56-.62,1.54-.62,2.14,0,.6.62.56,1.58-.06,2.13-.62.55-1.55.52-2.1-.05-.55-.56-.54-1.48.01-2.09Z"/>
      <path class="p" d="M183.19,82.79c-.82-.12-1.39-.85-1.33-1.61.07-.76.73-1.33,1.57-1.36.83-.03,1.51.74,1.42,1.62-.08.88-.84,1.47-1.66,1.35Z"/>
      <path class="p" d="M179.58,90.23c-.11-.81.51-1.59.56-1.68.05.07.95-.26,1.71.04.37.16.69.45.75.9.1.41-.12,1.09-.76,1.53-.63.42-1.26.39-1.61.18-.38-.19-.59-.56-.64-.97Z"/>
      <path class="p" d="M171.47,88.76c.41-.06.81.09,1.09.09.28,0,.43-.14.42-.14,0,0-.02.04.02.13.11.09.2.23.31.37.2.29.34.68.32,1.09-.02.42-.22.77-.56,1.02-.16.12-.39.19-.63.23-.31,0-.71-.06-1.06-.27-.74-.39-.98-1.22-.82-1.74.14-.52.53-.72.92-.77Z"/>
      <path class="p" d="M170.33,79.9c.8-.22,1.61.28,1.82,1.12.2.84-.37,1.66-1.17,1.79-.83.14-1.57-.37-1.75-1.13-.19-.76.31-1.56,1.11-1.78Z"/>
      <path class="p" d="M167.19,71.53c.75-.36,1.64-.03,1.99.75.36.77-.02,1.67-.78,1.98-.77.31-1.62-.04-1.96-.76-.33-.73,0-1.61.75-1.97Z"/>
      <path class="p" d="M162.73,63.78c.68-.47,1.62-.28,2.09.43.47.71.23,1.66-.47,2.08-.72.43-1.61.21-2.05-.45-.44-.67-.25-1.59.44-2.06Z"/>
      <path class="p" d="M157.1,56.83c.59-.58,1.55-.55,2.14.07.56.64.5,1.6-.13,2.14-.63.54-1.56.48-2.09-.12-.55-.57-.51-1.51.08-2.09Z"/>
      <g>
        <g class="w">
          <polygon class="p" points="28.99 133.85 29.02 133.82 29.05 133.8 29.08 133.78 29.11 133.76 29.14 133.75 29.18 133.74 29.22 133.73 29.26 133.72 29.35 133.72 29.44 133.72 29.54 133.74 29.65 133.77 29.76 133.8 29.87 133.85 29.99 133.9 30.11 133.97 30.23 134.04 30.35 134.12 30.47 134.21 30.58 134.31 30.7 134.41 30.8 134.52 30.9 134.62 30.99 134.73 31.07 134.84 31.14 134.95 31.2 135.05 31.23 135.1 31.24 135.13 31.24 135.14 31.25 135.15 31.25 135.15 31.25 135.15 31.25 135.16 31.25 135.16 31.25 135.16 31.15 135.22 31.04 135.28 30.93 135.33 30.8 135.38 30.67 135.42 30.53 135.46 30.38 135.49 30.23 135.52 30.08 135.54 29.93 135.55 29.79 135.56 29.65 135.56 29.51 135.55 29.39 135.53 29.26 135.51 29.15 135.48 29.05 135.45 28.96 135.41 28.87 135.36 28.8 135.31 28.77 135.29 28.74 135.26 28.72 135.23 28.69 135.2 28.68 135.16 28.66 135.13 28.65 135.1 28.64 135.06 28.64 135.03 28.64 134.99 28.64 134.95 28.65 134.92 28.66 134.88 28.68 134.85 28.7 134.81 28.72 134.78 28.77 134.71 28.84 134.64 28.91 134.57 29 134.51 28.96 134.41 28.93 134.31 28.91 134.22 28.9 134.13 28.91 134.09 28.91 134.05 28.92 134.01 28.92 133.97 28.94 133.94 28.95 133.91 28.97 133.88 28.99 133.85"/>
        </g>
        <g class="ac">
          <polygon class="p" points="30.58 134.31 30.7 134.41 30.8 134.52 30.9 134.62 30.99 134.73 31.07 134.84 31.14 134.95 31.2 135.05 31.25 135.16 31.15 135.22 31.04 135.28 30.93 135.33 30.8 135.38 30.67 135.42 30.53 135.46 30.38 135.49 30.23 135.52 30.08 135.54 29.93 135.55 29.79 135.56 29.65 135.56 29.51 135.55 29.39 135.53 29.26 135.51 29.15 135.48 29.05 135.45 28.96 135.41 28.87 135.36 28.8 135.31 28.77 135.29 28.74 135.26 28.72 135.23 28.69 135.2 28.68 135.16 28.66 135.13 28.65 135.1 28.64 135.06 28.64 135.03 28.64 134.99 28.64 134.95 28.65 134.92 28.66 134.88 28.68 134.85 28.7 134.81 28.72 134.78 28.77 134.71 28.84 134.64 28.91 134.57 29 134.51 28.96 134.41 28.93 134.31 28.91 134.22 28.9 134.13 28.91 134.09 28.91 134.05 28.92 134.01 28.92 133.97 28.94 133.94 28.95 133.91 28.97 133.88 28.99 133.85 29.02 133.82 29.05 133.8 29.08 133.78 29.11 133.76 29.14 133.75 29.18 133.74 29.22 133.73 29.26 133.72 29.35 133.72 29.44 133.72 29.54 133.74 29.65 133.77 29.76 133.8 29.87 133.85 29.99 133.9 30.11 133.97 30.23 134.04 30.35 134.12 30.47 134.21 30.58 134.31"/>
        </g>
      </g>
      <g>
        <g class="y">
          <polygon class="p" points="39.49 98.87 39.52 98.9 39.54 98.94 39.57 98.98 39.59 99.02 39.6 99.06 39.62 99.1 39.63 99.15 39.64 99.19 39.65 99.29 39.64 99.39 39.63 99.5 39.61 99.61 39.57 99.73 39.52 99.84 39.47 99.96 39.4 100.08 39.32 100.2 39.24 100.32 39.14 100.43 39.03 100.54 38.92 100.65 38.81 100.74 38.69 100.83 38.57 100.91 38.46 100.97 38.34 101.03 38.22 101.08 38.11 101.11 38.02 101.02 37.95 100.93 37.87 100.82 37.81 100.7 37.74 100.57 37.69 100.44 37.64 100.3 37.59 100.15 37.56 100 37.53 99.86 37.52 99.71 37.51 99.57 37.51 99.43 37.52 99.3 37.54 99.18 37.57 99.06 37.6 98.95 37.64 98.85 37.69 98.76 37.75 98.68 37.78 98.65 37.81 98.61 37.85 98.58 37.88 98.56 37.92 98.53 37.96 98.51 38 98.5 38.04 98.48 38.09 98.47 38.13 98.47 38.17 98.47 38.22 98.47 38.26 98.47 38.31 98.48 38.35 98.49 38.4 98.51 38.49 98.55 38.57 98.61 38.66 98.67 38.74 98.75 38.86 98.73 38.96 98.71 39.07 98.71 39.17 98.72 39.21 98.73 39.26 98.74 39.3 98.75 39.34 98.77 39.38 98.79 39.42 98.82 39.45 98.84 39.49 98.87"/>
        </g>
        <g class="q">
          <polygon class="p" points="39.03 100.54 38.92 100.65 38.81 100.74 38.69 100.83 38.57 100.91 38.46 100.97 38.34 101.03 38.22 101.08 38.11 101.11 38.02 101.02 37.95 100.93 37.87 100.82 37.81 100.7 37.74 100.57 37.69 100.44 37.64 100.3 37.59 100.15 37.56 100 37.53 99.86 37.52 99.71 37.51 99.57 37.51 99.43 37.52 99.3 37.54 99.18 37.57 99.06 37.6 98.95 37.64 98.85 37.69 98.76 37.75 98.68 37.78 98.65 37.81 98.61 37.85 98.58 37.88 98.56 37.92 98.53 37.96 98.51 38 98.5 38.04 98.48 38.09 98.47 38.13 98.47 38.17 98.47 38.22 98.47 38.26 98.47 38.31 98.48 38.35 98.49 38.4 98.51 38.49 98.55 38.57 98.61 38.66 98.67 38.74 98.75 38.86 98.73 38.96 98.71 39.07 98.71 39.17 98.72 39.21 98.73 39.26 98.74 39.3 98.75 39.34 98.77 39.38 98.79 39.42 98.82 39.45 98.84 39.49 98.87 39.52 98.9 39.54 98.94 39.57 98.98 39.59 99.02 39.6 99.06 39.62 99.1 39.63 99.15 39.64 99.19 39.65 99.29 39.64 99.39 39.63 99.5 39.61 99.61 39.57 99.73 39.52 99.84 39.47 99.96 39.4 100.08 39.32 100.2 39.24 100.32 39.14 100.43 39.03 100.54"/>
        </g>
      </g>
      <g>
        <g class="x">
          <polygon class="p" points="180.91 194.21 180.89 194.26 180.86 194.3 180.83 194.35 180.8 194.39 180.77 194.43 180.73 194.47 180.69 194.51 180.64 194.54 180.55 194.6 180.45 194.65 180.34 194.69 180.22 194.73 180.09 194.75 179.97 194.76 179.83 194.76 179.69 194.75 179.55 194.73 179.41 194.7 179.27 194.66 179.12 194.6 178.98 194.54 178.85 194.47 178.73 194.39 178.61 194.3 178.51 194.21 178.42 194.12 178.33 194.02 178.26 193.91 178.28 193.79 178.32 193.66 178.36 193.53 178.42 193.41 178.48 193.28 178.56 193.16 178.65 193.04 178.75 192.92 178.86 192.81 178.97 192.71 179.09 192.63 179.21 192.55 179.33 192.48 179.45 192.43 179.57 192.38 179.69 192.35 179.82 192.33 179.93 192.32 180.05 192.32 180.16 192.34 180.21 192.35 180.26 192.37 180.31 192.38 180.36 192.41 180.41 192.43 180.45 192.46 180.5 192.49 180.54 192.53 180.58 192.56 180.61 192.61 180.65 192.65 180.67 192.69 180.7 192.74 180.72 192.79 180.74 192.84 180.76 192.89 180.79 193 180.8 193.11 180.8 193.23 180.79 193.35 180.85 193.46 180.9 193.57 180.94 193.68 180.96 193.79 180.97 193.84 180.97 193.89 180.97 193.95 180.96 194 180.96 194.05 180.94 194.11 180.93 194.16 180.91 194.21"/>
        </g>
        <g class="u">
          <polygon class="p" points="179.12 194.6 178.98 194.54 178.85 194.47 178.73 194.39 178.61 194.3 178.51 194.21 178.42 194.12 178.33 194.02 178.26 193.91 178.26 193.91 178.26 193.91 178.26 193.91 178.26 193.91 178.26 193.9 178.26 193.9 178.26 193.88 178.27 193.85 178.28 193.79 178.32 193.66 178.36 193.53 178.42 193.41 178.48 193.28 178.56 193.16 178.65 193.04 178.75 192.92 178.86 192.81 178.97 192.71 179.09 192.63 179.21 192.55 179.33 192.48 179.45 192.43 179.57 192.38 179.69 192.35 179.82 192.33 179.93 192.32 180.05 192.32 180.16 192.34 180.21 192.35 180.26 192.37 180.31 192.38 180.36 192.41 180.41 192.43 180.45 192.46 180.5 192.49 180.54 192.53 180.58 192.56 180.61 192.61 180.65 192.65 180.67 192.69 180.7 192.74 180.72 192.79 180.74 192.84 180.76 192.89 180.79 193 180.8 193.11 180.8 193.23 180.79 193.35 180.85 193.46 180.9 193.57 180.94 193.68 180.96 193.79 180.97 193.84 180.97 193.89 180.97 193.95 180.96 194 180.96 194.05 180.94 194.11 180.93 194.16 180.91 194.21 180.89 194.26 180.86 194.3 180.83 194.35 180.8 194.39 180.77 194.43 180.73 194.47 180.69 194.51 180.64 194.54 180.55 194.6 180.45 194.65 180.34 194.69 180.22 194.73 180.09 194.75 179.97 194.76 179.83 194.76 179.69 194.75 179.55 194.73 179.41 194.7 179.27 194.66 179.12 194.6"/>
        </g>
      </g>
      <g>
        <g class="ad">
          <polygon class="p" points="172.81 210.4 172.75 210.38 172.69 210.37 172.63 210.34 172.58 210.32 172.52 210.29 172.47 210.26 172.37 210.19 172.28 210.1 172.19 210.01 172.12 209.9 172.05 209.79 172 209.67 171.95 209.54 171.91 209.41 171.89 209.27 171.88 209.12 171.88 208.98 171.89 208.83 171.91 208.68 171.95 208.53 172 208.38 172.06 208.25 172.13 208.12 172.2 208.01 172.29 207.9 172.38 207.8 172.43 207.75 172.46 207.73 172.47 207.72 172.48 207.72 172.48 207.71 172.48 207.71 172.48 207.71 172.48 207.71 172.49 207.71 172.62 207.68 172.75 207.66 172.89 207.65 173.03 207.65 173.17 207.67 173.32 207.7 173.46 207.74 173.61 207.79 173.75 207.86 173.88 207.93 174 208.01 174.11 208.11 174.21 208.21 174.3 208.31 174.38 208.42 174.44 208.54 174.5 208.65 174.54 208.78 174.57 208.9 174.59 209.02 174.59 209.15 174.58 209.21 174.58 209.27 174.57 209.33 174.55 209.39 174.53 209.46 174.51 209.51 174.48 209.57 174.45 209.63 174.42 209.68 174.38 209.73 174.34 209.78 174.3 209.83 174.21 209.91 174.11 209.99 174 210.05 173.89 210.11 173.76 210.15 173.66 210.23 173.55 210.29 173.43 210.35 173.31 210.38 173.19 210.41 173.13 210.42 173.06 210.42 173 210.42 172.94 210.42 172.88 210.41 172.81 210.4"/>
        </g>
        <g class="v">
          <polygon class="p" points="171.91 208.68 171.95 208.53 172 208.38 172.06 208.25 172.13 208.12 172.2 208.01 172.29 207.9 172.38 207.8 172.48 207.71 172.62 207.68 172.75 207.66 172.89 207.65 173.03 207.65 173.17 207.67 173.32 207.7 173.46 207.74 173.61 207.79 173.75 207.86 173.88 207.93 174 208.01 174.11 208.11 174.21 208.21 174.3 208.31 174.38 208.42 174.44 208.54 174.5 208.65 174.54 208.78 174.57 208.9 174.59 209.02 174.59 209.15 174.58 209.21 174.58 209.27 174.57 209.33 174.55 209.39 174.53 209.46 174.51 209.51 174.48 209.57 174.45 209.63 174.42 209.68 174.38 209.73 174.34 209.78 174.3 209.83 174.21 209.91 174.11 209.99 174 210.05 173.89 210.11 173.76 210.15 173.66 210.23 173.55 210.29 173.43 210.35 173.31 210.38 173.19 210.41 173.13 210.42 173.06 210.42 173 210.42 172.94 210.42 172.88 210.41 172.81 210.4 172.75 210.38 172.69 210.37 172.63 210.34 172.58 210.32 172.52 210.29 172.47 210.26 172.37 210.19 172.28 210.1 172.19 210.01 172.12 209.9 172.05 209.79 172 209.67 171.95 209.54 171.91 209.41 171.89 209.27 171.88 209.12 171.88 208.98 171.89 208.83 171.91 208.68"/>
        </g>
      </g>
    </g>
  </g>
  <g>
    <path class="p" d="M103.69,166.59c-.28.29-.7.44-1.12.32-.42-.1-.85-.46-1.05-.96-.41-1.02.2-1.91,1.01-1.99.83-.08,1.55.35,1.76.83.1.25.07.52-.03.83-.11.32-.27.66-.56.97Z"/>
    <path class="p" d="M106,174.88c-.8.28-1.66-.4-1.74-1.27-.09-.86.54-1.55,1.36-1.62.83-.07,1.54.54,1.62,1.29.08.74-.47,1.33-1.24,1.6Z"/>
    <path class="p" d="M112.12,173.25c.81.09,1.46.79,1.24,1.8-.11.5-.56,1.1-1.07,1.27-.51.17-.91-.08-1.12-.42-.22-.36-.32-.74-.48-.98-.17-.23-.32-.31-.24-.59.13-.56.85-1.17,1.68-1.08Z"/>
    <path class="p" d="M115.04,165.22c.39.14.67.44.78.86.1.41-.03.96-.41,1.39-.13.14-.28.26-.42.35l-.09.08c0-.13-.3-.07-.58-.09-.29,0-.63-.05-.93-.22-.31-.16-.54-.41-.63-.75-.08-.33-.09-.75.4-1.27l-.09.08c.02-.08.06-.14.12-.2.15-.17.4-.26.74-.32.32-.06.74-.06,1.12.08Z"/>
    <path class="p" d="M112.26,157.55c.2-.36.54-.62.95-.66.42-.06.91.12,1.29.5.77.89.45,1.79-.24,2.22-.7.43-1.64.18-1.93-.15-.33-.35-.44-1.17-.07-1.91Z"/>
    <path class="p" d="M104.13,158.53c-.31-.27-.46-.65-.41-1.08.04-.43.34-.85.77-1.13.92-.55,1.89-.09,2.1.7.22.8-.1,1.58-.56,1.87-.24.16-.55.15-.87.11-.33-.06-.72-.21-1.03-.48Z"/>
  </g>
  <g>
    <path class="p" d="M99.95,13.35c-.74-.37-1.07-1.2-.83-1.86.25-.65,1.03-1.05,1.84-.86.81.19,1.28,1.06.97,1.91-.31.85-1.24,1.18-1.98.81Z"/>
    <path class="p" d="M95.95,21.06c-.78-.23-1.22-1.14-.86-1.94.33-.81,1.27-1.1,1.99-.73.75.39,1.04,1.23.77,1.9-.3.66-1.09,1.01-1.9.77Z"/>
    <path class="p" d="M98.63,28.23c-.28.77-1.17,1.2-2.11.65-.45-.31-.73-.75-.75-1.19-.05-.42.16-.8.49-1.05.33-.25.71-.35,1.05-.41.32-.04.61-.04.82.12.45.27.79,1.12.51,1.89Z"/>
    <path class="p" d="M105.96,24.55c.67.52.72,1.48.1,2.14-.66.62-1.63.58-2.14-.09-.5-.65-.5-1.56.01-2.03.47-.51,1.39-.52,2.03-.03Z"/>
    <path class="p" d="M109.27,16.62c.81.08,1.42.88,1.22,1.75-.18.87-1.05,1.35-1.84,1.09-.78-.26-1.24-1.02-1.09-1.72.16-.69.87-1.2,1.71-1.11Z"/>
    <path class="p" d="M107.62,8.23c.35-.22.76-.28,1.14-.17.39.11.72.42.9.84.41.84-.08,1.75-.86,1.97-.82.24-1.57-.14-1.88-.74-.14-.32-.11-.67,0-1,.11-.34.35-.68.7-.9Z"/>
  </g>
  <g>
    <path class="p" d="M138.99,32.94c-.58-.58-.48-1.6.26-2.22.77-.57,1.76-.47,2.22.22.45.69.3,1.64-.34,2.12-.6.51-1.55.47-2.14-.12Z"/>
    <path class="p" d="M134.85,41.28c-.41-.01-.77-.21-1.02-.55-.25-.34-.38-.83-.25-1.32.17-1.02,1.15-1.53,1.9-1.24.79.3,1.15,1.1,1.04,1.82-.1.36-.29.67-.57.91-.29.23-.68.39-1.09.37Z"/>
    <path class="p" d="M138.96,49.48c-.47.72-1.53.74-2.28.02-.69-.75-.66-1.77.04-2.26.66-.46,1.6-.39,2.1.16.52.49.58,1.41.14,2.08Z"/>
    <path class="p" d="M146.09,46.47c.81.12,1.36,1.1.89,2.15-.26.5-.67.86-1.1.97-.45.11-.85,0-1.15-.3-.3-.29-.46-.67-.53-1-.07-.34-.09-.68.06-.95.26-.56,1.01-1.01,1.83-.88Z"/>
    <path class="p" d="M144.52,37.15c.83-.05,1.54.49,1.72,1.24.17.76-.25,1.61-1.04,1.87-.78.26-1.67-.25-1.89-1.2-.22-.96.38-1.86,1.21-1.9Z"/>
    <path class="p" d="M147.13,28.13c.3-.31.62-.37.92-.34.32.01.68.21.6.83-.08.62-.59,1.42-1.11,1.88-.52.48-1.03.63-1.47.58-.44-.05-.77-.22-1.07-.24-.29-.04-.53.07-.53.07,0,0,.28-.17.78-.68.52-.49,1.17-1.33,1.88-2.1Z"/>
  </g>
  <g>
    <path class="p" d="M35.69,55.47c-.78-.24-1.21-1.16-.86-2.02.34-.86,1.29-1.23,2.02-.86.75.38,1.05,1.25.76,1.98-.3.73-1.13,1.15-1.93.9Z"/>
    <path class="p" d="M34.94,64.68c-.8.18-1.63-.46-1.7-1.41-.08-.95.61-1.7,1.44-1.68.83.02,1.49.67,1.55,1.43.06.76-.47,1.49-1.29,1.67Z"/>
    <path class="p" d="M40.95,70.73c.04.81-.82,1.53-1.93,1.25-.26-.08-.5-.21-.7-.36-.19-.17-.33-.36-.42-.56-.18-.39-.12-.83.1-1.17.23-.35.56-.56.88-.71.16-.07.32-.12.47-.13.16-.03.31-.03.45.02.55.15,1.1.81,1.14,1.65Z"/>
    <path class="p" d="M46.5,64.45c.81.02,1.48.86,1.25,1.87-.1.49-.43.89-.77,1.1-.38.2-.8.22-1.18.04-.38-.17-.65-.48-.81-.79-.19-.33-.23-.66-.17-1.01.16-.67.83-1.24,1.67-1.21Z"/>
    <path class="p" d="M44.74,55.35c.83-.06,1.54.53,1.68,1.28.12.75-.33,1.47-1.1,1.77-.77.3-1.7-.29-1.85-1.24-.17-.95.45-1.74,1.28-1.81Z"/>
    <path class="p" d="M45.66,46.13c.46-.06.82.09.96.53.04.11.06.23.07.37,0,.07,0,.14,0,.22,0,.06.02.1.03.14.03.19.03.38-.02.57-.17.76-.93,1.31-1.75,1.19-.82-.12-1.38-.95-1.17-1.86.06-.23.15-.43.27-.61.03-.04.06-.09.09-.12l.09-.03.21-.07c.31-.1.76-.28,1.21-.34Z"/>
    <path class="p" d="M40.43,47.53c-.59-.58-.56-1.57.11-2.18.67-.61,1.68-.56,2.19.09.51.65.43,1.58-.16,2.12-.6.55-1.54.55-2.14-.03Z"/>
  </g>
  <g>
    <path class="t" d="M69.43,214.73c2.1,0,4.3,1.4,8.7,5.8,9.5,9.4,27.2,22.2,30.7,22.2s20.3-12.6,30.1-22.5c14.9-14.9,19.7-24.3,24.6-47.4,5.5-26.8,7.5-50.4,4.4-53.5-1.7-1.6-4-2.4-31-9.6-17.2-4.6-20.4-5.9-20.5-8.3,0-.4-1.5-1.6-3.2-2.7-3.6-2.2-4.3-2.3-7.3-1.1-6.8,2.8-7.7,12.4-1.5,15.6,4.1,2.1,6.4,1.9,9.6-.9l2.8-2.3,9.1,2.4c15.2,4.1,34.9,9.4,36.9,10,1.7.5,1.8,1.3,1.1,9.2-1.6,21-6.9,49.1-11,59.4-3.4,8.3-10.5,18.4-18.3,26.2s-23.6,19.5-26.1,19.5c-2.1,0-19.1-12.7-25.9-19.3-4.9-4.9-5.2-5.4-4.7-8.9,1.5-8.8-7.4-14.2-14-8.5-5.7,4.8-2,14.7,5.5,14.7ZM108.63,108.53c-2.4.4-3.8-1.8-2.8-4.4.3-.9,1.5-1.4,2.8-1.2,1.7.2,2.3,1,2.3,2.8s-.6,2.6-2.3,2.8ZM67.63,203.93c1.4-1.4,1.2-1.4,3.2-.6,2.1.8,2.1,5,0,5.8-3.2,1.2-5.7-2.7-3.2-5.2Z"/>
    <g>
      <path class="p" d="M71.66,208.52c-.31-.27-.5-.62-.65-.92-.14-.29-.22-.55-.16-.82.11-.52.68-1.12,1.48-1.31.4-.08.83.05,1.12.4.3.34.46.9.34,1.5-.12.6-.5,1.1-.94,1.3-.43.22-.88.13-1.19-.14Z"/>
      <path class="p" d="M67.63,203.93c.29.29.45.69.53,1.01.08.33.11.6.04.82-.08.21-.25.38-.52.59-.26.2-.59.43-1,.52-.4.09-.82-.03-1.12-.42-.29-.37-.42-1.02-.2-1.65.21-.63.69-1.05,1.13-1.17.46-.12.85,0,1.14.29Z"/>
    </g>
    <g>
      <path class="p" d="M107.84,102.9c0,.82-.43,1.55-.54,1.68-.09.09-.16-.14-.49-.04-.33.13-.74.18-1.14.07-.4-.11-.71-.38-.86-.77-.18-.42.15-1.33.76-1.71.6-.42,1.23-.41,1.64-.22.41.2.62.57.64.98Z"/>
      <path class="p" d="M108.63,108.53c-.11-.81.49-1.58.56-1.69.05-.03.2.06.52.01.31-.03.71-.11,1.11-.02.4.09.75.35.85.82.12.45-.13,1.23-.78,1.65-.63.42-1.24.39-1.62.19-.39-.2-.59-.56-.65-.97Z"/>
    </g>
    <g>
      <path class="p" d="M126.25,112.52c-.21.8-1.03,1.28-1.83,1.07-.8-.21-1.27-1.03-1.06-1.83s1.03-1.28,1.83-1.07c.8.21,1.28,1.03,1.06,1.83Z"/>
      <path class="p" d="M134.92,114.87c-.22.8-1.04,1.27-1.84,1.06s-1.27-1.04-1.05-1.84c.22-.8,1.04-1.27,1.84-1.06.8.22,1.27,1.04,1.05,1.84Z"/>
      <path class="p" d="M143.59,117.22c-.22.8-1.05,1.27-1.85,1.05s-1.26-1.04-1.04-1.84,1.05-1.27,1.85-1.05c.8.22,1.26,1.04,1.04,1.84Z"/>
      <path class="p" d="M152.26,119.57c-.23.8-1.06,1.27-1.86,1.05-.8-.22-1.26-1.04-1.03-1.83.23-.8,1.06-1.27,1.86-1.05.8.22,1.26,1.04,1.03,1.83Z"/>
      <path class="p" d="M160.93,121.92c-.23.79-1.07,1.26-1.87,1.05s-1.25-1.04-1.02-1.83,1.07-1.26,1.87-1.05,1.26,1.04,1.02,1.83Z"/>
      <path class="p" d="M164.17,128.75c-.83-.06-1.44-.78-1.4-1.58.05-.8.73-1.41,1.56-1.41.83,0,1.49.73,1.44,1.58-.05.85-.78,1.47-1.6,1.41Z"/>
      <path class="p" d="M163.37,137.69c-.82-.08-1.42-.82-1.34-1.63.09-.82.8-1.42,1.63-1.35.82.07,1.45.81,1.36,1.63-.08.83-.82,1.43-1.64,1.35Z"/>
      <path class="p" d="M162.33,146.62c-.82-.11-1.4-.86-1.29-1.67.11-.82.86-1.4,1.68-1.3.82.1,1.41.85,1.3,1.67-.11.82-.86,1.4-1.68,1.3Z"/>
      <path class="p" d="M161.05,155.51c-.82-.13-1.38-.89-1.25-1.71.13-.81.89-1.37,1.71-1.25.82.12,1.38.89,1.25,1.71-.13.82-.89,1.38-1.71,1.25Z"/>
      <path class="p" d="M159.54,164.36c-.81-.15-1.36-.93-1.21-1.74.15-.81.93-1.35,1.74-1.21.82.14,1.36.92,1.21,1.74s-.93,1.36-1.74,1.21Z"/>
      <path class="p" d="M157.8,173.17c-.81-.17-1.33-.97-1.17-1.77.17-.8.96-1.32,1.77-1.16.81.16,1.33.96,1.17,1.77s-.96,1.33-1.77,1.16Z"/>
      <path class="p" d="M155.74,181.92c-.8-.21-1.28-1.02-1.08-1.81.19-.8,1-1.29,1.81-1.09.8.19,1.3,1.01,1.1,1.82-.21.81-1.03,1.3-1.83,1.09Z"/>
      <path class="p" d="M153.12,190.5c-.77-.3-1.18-1.15-.9-1.9.26-.76,1.09-1.19,1.88-.93.79.25,1.23,1.11.95,1.91-.3.81-1.16,1.22-1.93.92Z"/>
      <path class="p" d="M149.14,198.54c-.72-.42-.95-1.33-.56-2.03.39-.71,1.3-.97,2.03-.58.73.39,1,1.3.59,2.05-.41.74-1.35.98-2.06.56Z"/>
      <path class="p" d="M144.19,206.04c-.67-.49-.82-1.43-.35-2.08.48-.66,1.39-.83,2.08-.36.68.46.86,1.42.37,2.1-.49.68-1.43.84-2.1.35Z"/>
      <path class="p" d="M138.56,213.03c-.62-.55-.68-1.48-.16-2.11.53-.62,1.47-.69,2.11-.17.64.53.72,1.48.17,2.12-.54.64-1.5.71-2.12.16Z"/>
      <path class="p" d="M132.29,219.46c-.56-.61-.53-1.55.06-2.11.59-.55,1.52-.54,2.11.05.59.58.57,1.55-.04,2.13-.61.58-1.57.55-2.13-.07Z"/>
      <path class="p" d="M125.47,225.3c-.52-.64-.43-1.58.21-2.1.63-.52,1.57-.43,2.11.2.53.63.44,1.58-.2,2.11-.65.53-1.59.43-2.11-.21Z"/>
      <path class="p" d="M118.35,230.78c-.49-.67-.35-1.6.31-2.09.66-.49,1.59-.36,2.09.3.5.66.37,1.6-.3,2.1-.67.5-1.61.36-2.1-.31Z"/>
      <path class="p" d="M110.88,235.76c-.4-.73-.17-1.62.5-2.04.68-.42,1.6-.22,2.05.48.45.69.25,1.63-.48,2.08-.73.45-1.68.21-2.08-.52Z"/>
      <path class="p" d="M102.97,233.59c.47-.69,1.39-.86,2.07-.42.67.44.87,1.36.44,2.06-.43.71-1.38.91-2.08.45-.71-.46-.89-1.4-.42-2.09Z"/>
      <path class="p" d="M95.7,228.32c.5-.66,1.44-.79,2.09-.3.66.49.79,1.43.3,2.09-.49.67-1.44.81-2.1.31-.67-.5-.8-1.44-.29-2.1Z"/>
      <path class="p" d="M88.65,222.74c.53-.64,1.47-.73,2.1-.21.63.52.74,1.46.22,2.1-.52.65-1.47.75-2.11.22-.65-.53-.74-1.48-.21-2.11Z"/>
      <path class="p" d="M81.96,216.76c.59-.59,1.53-.57,2.1-.03.57.55.62,1.49.06,2.1-.56.61-1.51.66-2.13.06-.63-.59-.61-1.55-.03-2.13Z"/>
      <path class="p" d="M77.83,209.26c.83.1,1.39.84,1.43,1.4.03.28-.11.52-.29.8-.2.27-.47.57-.85.74-.37.17-.8.17-1.17-.07-.38-.23-.65-.73-.69-1.27-.05-1.1.76-1.69,1.56-1.59Z"/>
      <path class="p" d="M76.1,200.74c.32-.26.72-.36,1.12-.27.41.08.81.35,1.02.79.51.86.07,1.84-.71,2.09-.8.26-1.57-.07-1.92-.64-.14-.31-.18-.65-.11-.99.08-.35.28-.71.6-.97Z"/>
      <path class="p" d="M68.07,197.9c-.09-.4,0-.8.26-1.12.26-.32.68-.58,1.17-.56,1.01-.06,1.7.78,1.54,1.59-.16.82-.79,1.36-1.44,1.41-.34-.02-.65-.12-.93-.34-.28-.23-.51-.57-.61-.97Z"/>
      <path class="p" d="M61.57,203.53c-.39-.13-.71-.42-.85-.81-.12-.38-.08-.86.14-1.3.54-.86,1.54-1.06,2.16-.48.59.55.8,1.44.45,1.96-.14.3-.42.49-.78.6-.34.12-.72.16-1.12.03Z"/>
      <path class="p" d="M63.37,211.92c-.59.55-1.67.43-2.16-.43-.27-.4-.3-.88-.18-1.27.12-.39.4-.69.78-.84.38-.15.8-.15,1.15-.04.34.11.61.32.81.6.32.59.22,1.41-.4,1.99Z"/>
      <path class="p" d="M71.45,215.18c-.36.76-1.11,1.13-1.63,1.08-.14-.03-.27-.06-.39-.15-.2-.09-.39-.21-.53-.36-.29-.3-.42-.68-.38-1.1.05-.41.25-.77.5-1.02.13-.13.26-.22.42-.28.23-.07.5-.11.77-.06.55.06.97.38,1.19.73.21.37.22.78.06,1.16Z"/>
      <path class="p" d="M78.4,220.8c-.58.59-1.54.59-2.11.02-.58-.56-.6-1.5-.04-2.11.56-.61,1.52-.63,2.13-.04.6.59.6,1.54.02,2.12Z"/>
      <path class="p" d="M85.07,226.82c-.53.63-1.48.71-2.12.16-.63-.55-.7-1.5-.15-2.12.55-.62,1.49-.69,2.11-.15.62.53.69,1.47.16,2.11Z"/>
      <path class="p" d="M92.07,232.44c-.5.66-1.45.78-2.11.27-.66-.51-.77-1.46-.26-2.11.51-.65,1.45-.77,2.1-.26.65.5.77,1.44.27,2.1Z"/>
      <path class="p" d="M99.35,237.7c-.46.69-1.4.86-2.09.39-.69-.48-.85-1.42-.37-2.09.48-.68,1.41-.84,2.08-.37.67.46.84,1.39.38,2.08Z"/>
      <path class="p" d="M107.09,242.25c-.31.77-1.26,1.1-2.04.69-.78-.4-1.04-1.33-.63-2.05.41-.72,1.31-.98,2-.62.69.36.97,1.2.67,1.97Z"/>
      <path class="p" d="M115.21,239.59c.45.69.25,1.63-.48,2.08-.73.45-1.67.21-2.07-.51-.4-.72-.18-1.62.5-2.04.68-.41,1.6-.22,2.05.48Z"/>
      <path class="p" d="M122.54,234.4c.5.66.37,1.6-.3,2.1-.67.5-1.61.36-2.1-.31-.49-.67-.35-1.6.31-2.09.65-.49,1.59-.36,2.09.3Z"/>
      <path class="p" d="M129.55,228.78c.54.63.45,1.58-.19,2.11-.64.53-1.59.44-2.11-.21-.52-.64-.43-1.58.2-2.11.63-.52,1.57-.43,2.11.2Z"/>
      <path class="p" d="M136.27,222.82c.57.6.54,1.56-.08,2.12-.62.57-1.57.52-2.12-.09-.56-.62-.51-1.56.09-2.11.6-.55,1.54-.52,2.11.08Z"/>
      <path class="p" d="M142.59,216.44c.61.56.63,1.52.06,2.13-.58.6-1.54.61-2.13.03-.59-.58-.61-1.52-.04-2.11.56-.6,1.5-.62,2.11-.06Z"/>
      <path class="p" d="M148.47,209.65c.66.51.76,1.45.22,2.11-.53.65-1.48.75-2.11.21-.63-.54-.73-1.48-.22-2.1.51-.63,1.46-.72,2.11-.22Z"/>
      <path class="p" d="M153.53,202.24c.72.41.94,1.34.49,2.06-.45.72-1.37.94-2.06.49-.69-.45-.91-1.38-.49-2.06.42-.68,1.34-.9,2.06-.49Z"/>
      <path class="p" d="M157.47,194.17c.77.31,1.12,1.19.79,1.97-.34.78-1.21,1.13-1.97.78-.75-.35-1.1-1.23-.78-1.97.32-.74,1.2-1.09,1.97-.78Z"/>
      <path class="p" d="M160.37,185.68c.8.23,1.25,1.07,1.01,1.87-.23.81-1.1,1.25-1.88.99-.79-.26-1.21-1.08-.99-1.87.23-.78,1.06-1.23,1.86-1Z"/>
      <path class="p" d="M162.61,176.98c.81.18,1.3.99,1.11,1.8-.19.81-1,1.31-1.81,1.11-.8-.2-1.3-1.01-1.11-1.8.19-.8,1-1.29,1.81-1.11Z"/>
      <path class="p" d="M164.45,168.19c.81.16,1.34.94,1.18,1.76-.16.82-.95,1.34-1.76,1.18-.81-.17-1.34-.95-1.18-1.76.16-.81.95-1.34,1.76-1.18Z"/>
      <path class="p" d="M166.05,159.35c.82.14,1.37.91,1.23,1.73-.14.82-.92,1.36-1.74,1.22s-1.36-.92-1.22-1.73c.14-.81.91-1.36,1.73-1.22Z"/>
      <path class="p" d="M167.42,150.47c.82.11,1.4.88,1.27,1.7-.12.82-.88,1.39-1.7,1.26s-1.39-.88-1.27-1.7c.12-.81.87-1.38,1.7-1.27Z"/>
      <path class="p" d="M168.53,141.56c.82.09,1.42.83,1.33,1.66-.1.83-.84,1.42-1.66,1.32s-1.41-.84-1.32-1.65c.09-.82.83-1.41,1.65-1.32Z"/>
      <path class="p" d="M169.26,132.61c.83.04,1.47.75,1.41,1.59-.06.84-.77,1.46-1.6,1.4-.82-.06-1.45-.77-1.4-1.59.05-.81.75-1.44,1.58-1.4Z"/>
      <path class="p" d="M169.19,123.63c.83-.09,1.57.54,1.62,1.41.04.86-.61,1.56-1.44,1.58-.82.01-1.52-.62-1.56-1.41-.05-.79.56-1.48,1.38-1.58Z"/>
      <path class="p" d="M164.01,117.32c.27-.79,1.14-1.19,1.97-.87.84.35,1.22,1.32.79,2.03-.43.71-1.23,1.04-1.92.75-.71-.28-1.11-1.13-.84-1.91Z"/>
      <path class="p" d="M155.41,114.74c.22-.8,1.05-1.26,1.85-1.04.8.23,1.26,1.06,1.03,1.85-.23.79-1.06,1.26-1.85,1.03-.79-.23-1.25-1.05-1.03-1.85Z"/>
      <path class="p" d="M146.74,112.36c.22-.8,1.04-1.27,1.84-1.06.8.22,1.27,1.04,1.05,1.84-.22.8-1.04,1.27-1.84,1.06-.8-.22-1.27-1.04-1.05-1.84Z"/>
      <path class="p" d="M138.07,110.04c.21-.8,1.03-1.28,1.83-1.06.8.21,1.27,1.04,1.06,1.84-.21.8-1.04,1.28-1.83,1.06s-1.27-1.04-1.06-1.84Z"/>
      <path class="p" d="M129.4,107.67c.23-.8,1.05-1.26,1.84-1.04.79.22,1.26,1.04,1.04,1.84-.22.8-1.05,1.27-1.85,1.05-.8-.22-1.27-1.05-1.04-1.85Z"/>
      <path class="p" d="M120.84,104.98c.31-.77,1.14-1.16,1.9-.91.75.27,1.18,1.1.93,1.89-.25.79-1.11,1.23-1.91.94-.81-.27-1.22-1.16-.92-1.93Z"/>
      <path class="p" d="M114.24,99.42c.47-.68,1.43-.84,2.15-.25.18.15.32.33.43.53.05.11.09.2.13.32.05.13.11.28.12.41.08.53-.25.87-.64,1-.39.13-.8.14-1.08.25-.07.02-.12.06-.18.08-.07,0-.16-.02-.23-.04-.16-.04-.31-.12-.45-.24-.56-.46-.72-1.38-.24-2.06Z"/>
      <path class="p" d="M106.02,97.6c-.31-.76.06-1.66.99-1.94.47-.13.99-.07,1.36.18.37.24.55.63.53,1.04-.02.42-.17.78-.34,1.07-.17.28-.39.5-.71.59-.65.2-1.52-.16-1.83-.94Z"/>
      <path class="p" d="M100.47,104.21c-.83-.15-1.29-1.05-.96-1.97.19-.44.52-.77.89-.92.4-.13.81-.09,1.17.12.36.21.6.54.71.87.13.34.17.7.03,1.02-.22.63-1.03,1.04-1.83.89Z"/>
      <path class="p" d="M103.08,112.33c-.26.32-.63.5-1.05.49-.21,0-.43-.04-.63-.14-.19-.11-.38-.26-.53-.46-.16-.19-.28-.4-.34-.61-.05-.22-.05-.45-.01-.65.08-.41.32-.73.69-.92.37-.19.78-.23,1.13-.17.18.03.33.09.47.17.15.07.29.16.39.29.1.13.17.28.21.44.05.16.08.32.07.49-.01.35-.13.75-.39,1.07Z"/>
      <path class="p" d="M111.45,114.09c.38.73-.07,1.73-1.15,1.94-.52.1-1.02-.06-1.34-.33-.32-.29-.46-.67-.42-1.09.04-.41.23-.78.45-1.03.23-.28.48-.45.77-.5.55-.09,1.31.27,1.69,1.02Z"/>
      <g>
        <g class="ab">
          <polygon class="p" points="117.21 108.58 117.25 108.59 117.28 108.61 117.32 108.63 117.35 108.65 117.38 108.68 117.41 108.71 117.44 108.74 117.47 108.77 117.52 108.85 117.56 108.94 117.59 109.04 117.62 109.15 117.64 109.26 117.65 109.38 117.66 109.51 117.66 109.65 117.65 109.79 117.63 109.93 117.6 110.08 117.57 110.23 117.52 110.38 117.47 110.52 117.42 110.65 117.36 110.78 117.3 110.9 117.23 111.01 117.15 111.11 117.08 111.2 116.98 111.14 116.87 111.08 116.76 111.01 116.65 110.93 116.54 110.84 116.44 110.74 116.33 110.64 116.23 110.52 116.14 110.4 116.05 110.28 115.97 110.15 115.91 110.03 115.85 109.91 115.8 109.79 115.76 109.67 115.73 109.56 115.71 109.45 115.7 109.35 115.7 109.25 115.72 109.16 115.73 109.11 115.74 109.07 115.75 109.03 115.77 109 115.79 108.96 115.82 108.93 115.84 108.9 115.87 108.87 115.9 108.85 115.94 108.83 115.97 108.81 116.01 108.8 116.05 108.79 116.09 108.78 116.13 108.78 116.18 108.78 116.27 108.78 116.37 108.8 116.47 108.83 116.57 108.87 116.65 108.79 116.73 108.72 116.81 108.66 116.89 108.62 116.93 108.6 116.97 108.59 117.01 108.58 117.05 108.57 117.09 108.57 117.13 108.57 117.17 108.57 117.21 108.58"/>
        </g>
        <g class="z">
          <polygon class="p" points="117.57 110.23 117.52 110.38 117.47 110.52 117.42 110.65 117.36 110.78 117.3 110.9 117.23 111.01 117.15 111.11 117.08 111.2 116.98 111.14 116.87 111.08 116.76 111.01 116.65 110.93 116.54 110.84 116.44 110.74 116.33 110.64 116.23 110.52 116.14 110.4 116.05 110.28 115.97 110.15 115.91 110.03 115.85 109.91 115.8 109.79 115.76 109.67 115.73 109.56 115.71 109.45 115.7 109.35 115.7 109.25 115.72 109.16 115.73 109.11 115.74 109.07 115.75 109.03 115.77 109 115.79 108.96 115.82 108.93 115.84 108.9 115.87 108.87 115.9 108.85 115.94 108.83 115.97 108.81 116.01 108.8 116.05 108.79 116.09 108.78 116.13 108.78 116.18 108.78 116.27 108.78 116.37 108.8 116.47 108.83 116.57 108.87 116.65 108.79 116.73 108.72 116.81 108.66 116.89 108.62 116.93 108.6 116.97 108.59 117.01 108.58 117.05 108.57 117.09 108.57 117.13 108.57 117.17 108.57 117.21 108.58 117.25 108.59 117.28 108.61 117.32 108.63 117.35 108.65 117.38 108.68 117.41 108.71 117.44 108.74 117.47 108.77 117.52 108.85 117.56 108.94 117.59 109.04 117.62 109.15 117.64 109.26 117.65 109.38 117.66 109.51 117.66 109.65 117.65 109.79 117.63 109.93 117.6 110.08 117.57 110.23"/>
        </g>
      </g>
    </g>
  </g>
  <polygon class="s" points="81.74 157.58 104.13 158.53 105.97 130.95 81.74 157.58"/>
  <polyline class="s" points="98.01 134.68 113.83 158.93 139.2 142.34"/>
  <polyline class="s" points="102.18 161.91 81.51 166.18 106.52 173.11 90.18 189.2 111.19 175.89 102.18 205.14"/>
  <line class="s" x1="72.76" y1="138.44" x2="70.82" y2="122.6"/>
  <path class="s" d="M53.43,122.83c3.73.95,20.8,13.58,20.8,13.58l-18,13.58"/>
  <line class="s" x1="81.51" y1="122.6" x2="91.85" y2="130.52"/>
  <polyline class="s" points="86.68 136.41 105.22 156.41 132.1 138.44"/>
  <line class="s" x1="95.95" y1="196.44" x2="102.24" y2="166.18"/>
  <polyline class="s" points="113.83 174.31 132.33 156.7 113.83 158.93 123.3 134.68"/>
  <polygon class="s" points="83.71 216.44 91.85 202.79 88.92 222.86 108.21 213.6 105.22 234.93 99.1 209.36 78.63 201.4 86.68 196.44 83.71 216.44"/>
  <line class="s" x1="117.61" y1="211.95" x2="133.31" y2="218"/>
  <polyline class="s" points="149.1 196.44 139.2 164.04 140.77 188.91 159.32 164.04 113.83 175.94 121.77 198.95 85.24 182.74 111.19 175.89 108.53 209.93 111.58 174.31 115.35 202.79"/>
  <line class="s" x1="90.2" y1="192.44" x2="122.2" y2="192.44"/>
  <polyline class="s" points="74.04 238.86 77.94 220.24 56.5 219.58 60.97 211.95 38.48 170.55 50.1 146.8 32.35 142.3 47.42 130.52 32.35 151.6 50.1 140.6 34.11 160.13 50.97 166.18 37.94 177.77 53.45 180.6 40.65 186.29 61.2 202.5 61.2 180.6 69.32 196.44 76.65 171.77 59.84 165.24 72.81 154.73 63.87 122.83 56.27 157.58 74.27 136.41 53.68 130.95 110.74 115.27 163.36 135.79 85.28 113.94"/>
  <polygon class="s" points="169.16 144.74 189.17 112.9 166.44 118.31 180.98 108.29 169.93 125.89 169.16 144.74"/>
  <path class="s" d="M130.82,107.85l28.5-11.96-28.5,11.96Z"/>
  <polyline class="s" points="129.72 89.73 132.83 108.58 112.31 86.89 123.58 105.27 128.12 89.73 109.13 95.89 120.9 87.04 116.7 101.14 103.41 86.89 101.03 102.89 69.78 95.89 47.64 122.6 43.02 105.73 56.14 116.22 61.42 98.44 70 108.29 76.02 92.29 77.67 105.44 98.51 102.89 82.9 111.87 102.97 110.76 82.01 122.6 98.51 128.29 125.06 113.94 108.71 125.89 117.33 110.03 119.1 128.29 132.83 113.94 144.2 137.25 144.2 117.11 135.71 133.31 159.77 121.44 143.43 134.68 163.81 135.79 144.43 144.74 161.44 154.44 147.73 160.13 141.27 188.91 158.56 170.55 139.7 164.04 114.53 166.73 137.77 180.89 114.33 174.31 126.3 183.54"/>
  <path class="s" d="M16.41,143.17l15.69,8-28.37,2.79,10.01-9.51H1.86l7.32-2.39-7.16-3.11,4.04-8.02,1.54,41.33,24.49-13.9s-31.54-2.62-29.28-2.19,1.73,7.2,1.73,7.2l24.24-21.31-14.04.29,15-7.89-14.07.13,7.89-10.62,1.6-8.34,6.94,7.12-5.57,5.82,5.57-.24-19.37-18.4-1.73-1.64,3.74,17.25,8.72-16.53-9.72-8.29,21.09-6.65-17.09-1.03,13.55-4.42s-10.42-3.26-10.15-3.58,2.32,21.19,2.32,21.19l-6.72-11.78,12.04,8.7-16.04,3.07,22.1,101.3,7.65-12.38-13.92,5.94,10.21-15.21-17.38,9.27,16.18-18.3-21.54,11.2"/>
  <polyline class="s" points="70.88 247.44 74.45 240.57 76.06 246.05 83.2 240.57 83.2 247.44 87.14 247.44 76.34 239.4 72.25 250.55 74.98 255.34 81.97 250.55 84.51 255.34 75.98 250.55"/>
  <path class="s" d="M35.71,96.8l-19.14-7.13,27.89,14.3,9.17-2.17,2.82-5.29-8.74,3.25-8.12-6.19,8.12-1.06-2.89-9.65,16.1,13.64-13.21-22.84,21.56,18.84s4.97-21.9,0-18.84-22.98,7.83-22.98,7.83l27.69-1.2-7.39,15.23-14.38-27,18.82,2.14-10.12-8.91,8.35,2.04-4.44-10.14,5.98,3.23-17.19,10.31,23.54,25.02,5.33-7.45,2.74,4.6,43.57-56.51s-47.37,27.53-46.41,27.53,39.35-1.72,39.35-1.72c0,0-42.1,9.6-40.24,9.75s41.18-1.25,41.18-1.25l-19.78,19.65,3.6-51.96,18.94-9.43h-14.74l9.93-9-8.8.14,16.5,14.2-29.26,8.66,26.06,10.44,3.72-9.45-42.23,11.5,35.69,4.68-30.93-10.95,27.24,40.67,10.65-13.93-34.68,14.23-11.92-10.79,42.83-53.24-31.68,66.89-16.73,15.75,9.53-14.38,12.45,35.5,3.09-12.9-19.44.29,17.79-11.05-4.57-13.45"/>
  <polyline class="s" points="127.62 89.6 139.2 73.25 120.4 86.9 130.82 73.25 138.6 87.7 163.31 64.58 149.1 61.35 159.32 59.12 149.33 92.44 145.13 92.44 142.99 99.67 135.3 96.42 138.58 89.61 146.99 70.38 143.99 89.6 169.13 81.81 145.13 68.83 167.19 71.64 159.33 93.58 187.83 128.31 169.9 134.39 187.83 138.14 185.44 146.47 169.9 141.99 181.14 154.37 166.43 161.52 180.91 172.69 181.14 163.65 169.13 151.54 183.62 148.3 162.16 178.44 173.64 178.44 164.51 169.5 178.95 172.95 159.33 186.55 176.35 200.9 173.29 186.55 164.28 208.64 179.32 192.9 154 204.71 158.95 213.46 146.94 211.53 159.33 222.42 140.98 217.57 151.8 227.88 135.2 222.89 146.94 236.09 139.2 242.03 122.27 234.52 132.32 247.34 113.81 238.45 125.45 253.43 105.95 242.03 118.59 257.94 129.21 229.92 143.93 234.52 113.81 242.03 158.12 224.44 133.31 224.62 158.49 216.03 157.24 196.02 175.7 189.62"/>
  <polyline class="s" points="170.2 89.73 168.41 98.44 172.88 93.31 173.77 92.29 181.26 89.73 179.2 101.29 179.2 105.45 171.46 105.28 173.87 96.84 167.38 96.58 193.93 86.59 184.2 82.58 188.2 79.55 188.2 102.87 195.57 92.9 191.06 110.69 199.44 101.85 189.38 120.44 200.66 120.44 189.38 113.11 198.31 94.75 188.2 131.07 198.6 127.48 184.57 154.44 200.66 143.5 209.77 151.9 205.72 136.5 209.77 142.36 184.2 186.12 184.2 166.11 184.37 164.01 184.93 157.27 205.91 169.43 188.2 138.52 209.77 158.91 181.63 194.17 194.11 192.13 174.32 186.81 180.74 180.46 176.89 176.44 203.58 176.44 199.77 183.62 181.21 163.92 188.9 198.8 176.33 201.21 182.38 205.99 179.3 193.22 176.21 211.83 173.13 208.81 165.41 213.48 164.27 208.95 158.49 216.33 168.63 225.21 168.81 217.88 175.98 219.17 176.21 213.48"/>
  <polygon class="s" points="161.2 230.51 161.2 223.7 154.2 230.51 154.2 235.04 149.18 237.31 161.2 230.51"/>
  <polygon class="s" points="40.37 70.44 44.23 56.96 35.87 54.94 44.46 65.57 34.67 64.13 44.46 50.26 42.9 45.3 40.37 70.44"/>
  <polyline class="s" points="97.93 27.93 108.91 9.73 102.18 13.14 105.22 24.86 107.98 18.83 96.4 19.85 107.98 7.02"/>
  <polyline class="s" points="137.6 47.87 145.07 37.28 137.21 38.56 146.33 29.44 140.58 29.44 146.33 47.87 134.83 40.34"/>
  <polygon class="s" points="88.81 244.76 105.97 242.44 82.74 240.46 90.23 233.06 88.81 244.76"/>
  <path class="s" d="M98.23,237.16l-31.71-2.24,3.07-20.37-6.83,10.69-9.1-42.26-1.25,27.09,8.84-1.24-14.13-6.62s-4.78,12.64-4.28,12.58-7.87-5.96-7.87-5.96c0,0,9.89-3.96,11.3-3.96l20.49,35.62-.23-5.58-5.27-1.88,1.51-5.6h-7.89l1.26-6.16.38-1.84s-6.74,2.16-8.81,2.26,2.59-8.26,2.59-8.26h-10.04L6.95,172.56l33.57,23.54L1.11,147.53l34.48,21.4-23.35,11.48"/>
  <path class="s" d="M82.74,226.95l-8.75,13.18-12.84-31.39,49.78,49.28,4.42,11.77-4.16-.29,9.24-6.06-17.07-.27,5.36,11.21.86-5.34-6.21.27.68-8.6,7.18,2.73,20.48-7.87-13.18,2.87h8.42l-1.48-5,9.2.14s-.51-3.53,0-3.5,6.55-2.67,6.55-2.67l5.68-8.81-5.68,3.84h5.99"/>
  <polyline class="s" points="105.97 242.44 88.81 247.75 115.35 258.34 84.05 255.23 102.91 260.8 86.68 247.33 125.46 253.83"/>
  <path class="s" d="M115.35,134.68l-32.61,39.64c1.99-.15,23.78-1.2,23.78-1.2"/>
  <path class="s" d="M81.77,138.58c.83,1.34,22.61,20.09,22.61,20.09l27.98-22.12-53.47,11.89,56.58,1.7-21.38-19.04,39.55,57.96-39.55-29.98,23.67,2.98-40.56,36.43-.54-63.66-11.17,48.06,4.99-48.06-8.71,31.5-1.21-23.88,57.2.29-9.07,38.72"/>
  <path class="s" d="M32.35,102.89s17.35,19.21,15.29,19.71c-.22.05-.66.02-1.27-.1-4.98-.93-21.22-6.89-21.22-6.89l17.86-9.88h-17.03l21.43,24.79-11.71-1.94-1.26-8.31,15.84,44.52-12.56-63.5-3.04,15.82,68.24-30.29,37.86,21.75,26.44-5.69-9.63,10.76-5.79-19.93-8.87,6.11,6.17,10.93,11.95-15.8s4.7,15.89,5.94,21.87"/>
  <polyline class="s" points="141.21 98.73 130.82 107.85 135.3 96.42"/>
  <line class="s" x1="169.93" y1="125.89" x2="187.83" y2="128.31"/>
  <polyline class="s" points="184.37 164.01 177.81 108.29 167.21 158.93 187.83 138.14"/>
  <path class="s" d="M78.63,201.4c-.37-3.4,0-20.8,0-20.8l-9.31,15.84,13.08-7.24-39.51,7.24,35.74-15.84-12.03-7.49,7.61-9.07-18-6.46,16.77-10.78-19.36-6.21,8.81-20.33,19.31,10.68"/>
  <path class="s" d="M97.85,225.21c-.87.02,1.24-15.86,1.24-15.86l-20.47.58,39.97,19.07,18.9-32.19,16.13-7.76-56.68,40.46,18.41-17.97-3.54,21.89-3.59-17.37,10.39,12.95,7.4-4.25-16.18-9.25,19.63-14.75,9.05,13.22.7-17.16,4.73,9.63h-20.29l9.68,11.92c1.23-1.15-3.86-17.62-3.86-17.62l-3.45,24.01"/>
  <path class="s" d="M163.81,137.9c-1.13.86-16.09,22.23-16.09,22.23l13.47-13.88-17-9.01,19.16-8.96-12.59-8.02,7.79,50.28"/>
  <line class="s" x1="196.35" y1="189.2" x2="191.21" y2="120.27"/>
</svg>